<?xml version="1.0" encoding="UTF-8" standalone="yes"?>
<svg version="1.2" width="810" height="769" viewBox="0 0 810 769" stroke-linecap="round" stroke-linejoin="round" id="svg7964" sodipodi:docname="BlankTexasCountyMap.svg" inkscape:version="1.1.1 (3bf5ae0d25, 2021-09-20)" xmlns:inkscape="http://www.inkscape.org/namespaces/inkscape" xmlns:sodipodi="http://sodipodi.sourceforge.net/DTD/sodipodi-0.dtd" xmlns="http://www.w3.org/2000/svg" xmlns:svg="http://www.w3.org/2000/svg" xmlns:rdf="http://www.w3.org/1999/02/22-rdf-syntax-ns#" xmlns:cc="http://creativecommons.org/ns#" xmlns:dc="http://purl.org/dc/elements/1.1/">
  <metadata id="metadata7970">
    <rdf:RDF>
      <cc:Work rdf:about="">
        <dc:format>image/svg+xml</dc:format>
        <dc:type rdf:resource="http://purl.org/dc/dcmitype/StillImage"/>
      </cc:Work>
    </rdf:RDF>
  </metadata>
  <defs id="defs7968"/>
  <sodipodi:namedview pagecolor="#ffffff" bordercolor="#666666" borderopacity="1" objecttolerance="10" gridtolerance="10" guidetolerance="10" inkscape:pageopacity="0" inkscape:pageshadow="2" inkscape:window-width="1920" inkscape:window-height="1001" id="namedview7966" showgrid="false" inkscape:zoom="0.9368506" inkscape:cx="485.13605" inkscape:cy="369.8562" inkscape:window-x="-9" inkscape:window-y="-9" inkscape:window-maximized="1" inkscape:current-layer="Texas" inkscape:pagecheckerboard="0"/>
  <g id="Texas" transform="translate(5,5)" stroke="#ffffff" stroke-width="1" style="fill:#000000;fill-opacity:1">
    <path d="m 498.74,390.93 18.38,-0.53 13.87,-0.48 1.59,2.34 2.94,5.07 0.79,1.75 -8.06,8.6 -5.1,11.57 -4.3,9.82 1.54,-0.81 0.05,2.16 -1.65,2.97 -13.94,-3.99 -0.16,-5.13 -1.48,-1.07 -1.32,0.72 -0.94,-1.66 0.7,-0.87 -1.07,-1.93 -0.08,-1.33 -1.28,-1.92 1.91,-0.15 -0.42,-1.9 2.32,-3.21 -2.89,-0.23 -0.05,-1.81 1.7,-4.78 -1.7,0.59 0.1,-1.71 -1.78,-0.78 0.09,-3.62 1.43,-0.22 0.46,-1.27 -2.01,-0.66 0.28,-2.31 -1.09,-1.65 z" id="Burnet" fill="#0D0596" style="fill:#0D0596;fill-opacity:1"/>
    <path d="m 604.66,587.78 0.54,-3.95 0.95,3.27 z m 9.27,-35.22 3.6,-1.01 0.72,1.34 6.2,-0.3 2.95,0.12 1.74,-1.95 -0.17,3.97 5.06,-0.27 0.14,2.32 -2.85,18.02 -2.04,3.48 -1.82,1.85 -7.27,4.06 -4.39,3.07 -7.37,6.05 -6.17,5.9 1.35,-3.77 1.23,-0.94 -0.75,-2.63 0.05,-0.34 2.03,-1.6 2.63,-0.04 2.92,-1.03 -0.34,-0.93 1.78,-0.71 1.14,-1.58 4.45,-4.07 2.17,-0.35 1.35,-1.29 3.57,-0.83 1.69,-0.77 0.39,-1.49 -1.25,-1.13 1.96,-1.78 0.01,-0.9 -2.07,-0.05 -3.59,2.64 -4.54,2.46 -2.43,2.54 -3.71,0.25 -1.4,-2.4 0.3,-2.28 -0.51,-1.67 -2.6,-0.27 -0.76,-2.23 -1.59,-0.96 -1.08,-1.84 -1.69,1.17 2.75,1.29 -1.8,1.23 -3.15,-3.2 -0.2,-0.95 -1.67,-1.16 -0.99,-1.73 0.63,-1.22 -0.58,-1.27 -1.71,-1.35 4.69,-3.58 8.12,-2.72 3.49,-2.66 z" id="Calhoun" fill="#0D0596" style="fill:#0D0596;fill-opacity:1"/>
    <path d="m 277.1,33.79 31.24,0.42 -0.32,30.75 -0.01,0.27 -31.4,-0.43 v -0.53 z" id="Moore" fill="#0D0596" style="fill:#0D0596;fill-opacity:1"/>
    <path d="m 638.04,401.81 2.63,-0.36 15.93,-3.29 2.68,16.5 1.16,9.19 1.27,11.49 0.27,6.54 -7.3,0.88 -10.17,1 -0.25,0.26 -0.78,-0.51 1.15,-3.94 -1.01,-0.32 -3.43,-2.54 0.67,-0.52 -0.25,-3.36 1.58,-0.25 0.73,-2.23 -0.93,-1.63 -0.84,-3.42 -1.1,-2.63 -0.85,-0.94 -0.09,-2.02 -1.46,-1.23 0.18,-2.35 0.81,-1.67 -0.37,-3.19 -0.52,-1.38 0.79,-0.94 -0.42,-1.88 0.41,-1.48 -1.35,-1.77 z" id="Grimes" fill="#0D0596" style="fill:#0D0596;fill-opacity:1"/>
    <path d="m 532.2,315.19 13.93,-8.85 0.96,0.25 1.05,-0.04 1.69,1.75 0.97,2.04 2.76,0.9 -0.18,-1.8 2.15,-0.92 1.16,0.73 -2.27,2.51 1.6,2.9 -1.25,1.95 0.45,2.98 0.68,0.52 1.98,-0.36 1.18,0.43 2.65,2.43 -3.48,2.88 1.63,1.63 0.86,-0.02 2.25,3.13 2.19,1.61 1.4,-0.53 1.67,1.01 -2.93,3.28 1.03,1.88 2.03,1.08 -18.09,10.88 -1.52,0.83 -5.34,-8.62 -4.59,2.85 -15.01,-24.2 z" id="Bosque" fill="#0D0596" style="fill:#0D0596;fill-opacity:1"/>
    <path d="m 671.4,392.84 10.79,-9.53 0.4,8.55 1.31,1.32 1.43,2.64 0.52,1.85 3.52,-0.58 -0.29,8.66 -0.12,8.01 -0.4,8.6 -0.18,-0.32 -14.55,0.63 -14.55,-8.01 -2.68,-16.5 2.22,-0.18 2.54,-1.09 1.53,-1.48 2.75,-0.89 3.48,0.85 1.65,-0.34 z" id="Walker" fill="#0D0596" style="fill:#0D0596;fill-opacity:1"/>
    <path d="m 689.37,397.09 0.79,-1 -0.02,-1.75 3.67,-0.8 1.39,1.34 -0.69,1.46 0.82,1.79 1.94,1.09 1.23,0.38 3.13,2.46 0.07,1.58 -0.77,1.13 -0.05,1.89 1.82,2.76 1.52,1.12 2.44,-1.51 1.94,2.07 1.14,3.05 -1.14,2.02 3.86,-0.05 1.62,1.13 1.82,-0.23 2.22,0.99 1.98,-0.1 0.64,1.07 -2.02,1.51 1.17,1.16 0.43,0.41 -9.81,5.7 -9.56,5.36 -3.59,1.97 1.24,-2.36 -2.12,-1.87 -1.48,-0.2 -2.98,-1.43 -1.41,-1.91 -2.05,-4.96 0.4,-8.6 0.12,-8.01 z" id="San Jacinto" fill="#0D0596" style="fill:#0D0596;fill-opacity:1"/>
    <path d="m 707.27,356.04 8,-7.58 2.71,2.73 2.62,0.24 3.25,1.55 2.6,0.33 1.47,-0.53 1.3,0.88 2.36,-0.23 1.31,0.8 1.61,-0.22 1.18,2.53 2.11,-0.96 2.19,2.04 1.35,4.12 3.52,1.4 1.27,2.26 1.03,0.41 0.69,1.58 1.33,0.79 0.86,0.03 1.59,1.5 3.98,1.61 2.06,2.69 1.96,0.87 2.04,1.53 -19.76,5.76 -3.68,-1.07 -2.77,-0.41 -2.29,-0.56 -1.5,-1.26 -2.16,0.28 -3.78,-1.37 -1.21,0.29 -6.42,-2.49 -0.09,-0.23 -0.55,-2.25 -1.1,-2.08 0.04,-1.67 -2.11,-1.72 0.75,-2.13 -1.73,-3.44 -2.78,-0.25 -0.37,-3.16 z" id="Angelina" fill="#0D0596" style="fill:#0D0596;fill-opacity:1"/>
    <path d="m 294.99,418.07 3.63,0.07 2.18,0.98 0.9,1.6 -0.33,2 1.01,2.69 -1.66,1.88 -0.14,1.58 -1.03,0.73 0.16,1.69 -1.88,0.86 -1.34,2.39 0.74,0.94 1.68,0.47 0.32,1.63 2.26,1.54 -0.7,1.29 -1.91,-0.49 -2.26,1.32 -1.35,2.74 -0.47,29.29 -0.14,6.63 -1.53,-0.48 -1.1,-1.09 -2.92,-0.35 -1.99,0.99 -3.94,-0.61 -2.12,-1.03 -2.11,1.23 -3.64,0.7 -2.18,-0.4 -3.11,-1.63 -1.95,-2.32 -1.98,0.4 -2.45,-1.02 -2.32,-1.7 -1.19,-0.11 -14.98,-12.63 0.33,-16.35 13.79,0.2 0.41,-22.32 12.55,0.3 0.11,-4.15 8.59,0.27 z" id="Terrell" fill="#3933E5" style="fill:#3933E5;fill-opacity:1"/>
    <path d="m 277.65,2.04 31.03,0.49 -0.34,31.68 -31.24,-0.42 z" id="Sherman" fill="#0D0596" style="fill:#0D0596;fill-opacity:1"/>
    <path d="m 372.17,158.63 5.88,0.05 2.5,0.06 22.29,0.03 0.02,6.22 -0.6,-1.12 -2.32,0.74 -0.01,28 -27.9,0.04 0.06,-23.61 z" id="Cottle" fill="#0D0596" style="fill:#0D0596;fill-opacity:1"/>
    <path d="m 612.86,514.55 2.2,-1.35 13.89,-9.53 1.65,-1.02 2.27,-7.74 7.89,-8.76 2.12,0.93 1.57,-0.32 1.76,1.47 1.67,0.66 0.21,1.61 1.21,1.51 -0.78,0.85 0.53,1.79 -0.72,1.44 1.55,3.08 1.79,1.08 1,-0.35 1.22,1.54 0.46,2.08 1.84,1.65 -0.6,1.61 3.6,1.59 -0.27,0.84 1.21,2.26 2,0.22 -1.55,2.4 -5.44,6.1 -4.46,3.04 -16.49,10.79 z" id="Wharton" fill="#0D0596" style="fill:#0D0596;fill-opacity:1"/>
    <path d="m 390.65,592.98 6.2,-0.08 15.03,-0.19 30.23,-0.53 0.44,12.37 26.62,-1.77 10.26,-0.56 0.34,20.05 0.66,29.92 0.1,6.11 -9.95,0.03 -24.06,-0.01 -2.38,-3.25 -5.25,3.89 -1.71,0.37 -1.01,-0.82 0.11,-2.26 -2.23,-0.17 -0.52,-0.81 2.11,-1.6 -0.23,-1.02 0.98,-1.88 0.28,-2.26 -0.5,-2.78 0.99,-1.94 -1.13,-1.51 -1.99,0.1 0.38,-3.22 0.67,-1.45 -1.21,-1.11 -0.76,-1.83 -2.3,-0.92 -1.62,-1.61 -2.23,1.1 -1.71,-0.64 -0.2,-1.71 -2.26,0.37 -1.07,-0.79 -3.14,-4.67 -1.95,-0.67 -0.74,-2.29 -1.39,0.8 -1,-2.21 -1.72,-0.47 0.24,-1.06 -0.51,-2.47 -1.23,-0.97 0.46,-2.05 -0.38,-1.36 -1.1,-0.41 -1.34,-2.56 0.42,-1.91 -3.66,-0.83 -1.12,-1.99 -0.67,-3.12 -2.22,-1.41 -0.16,-1.16 -1.76,-3.04 -3.63,-1.71 -1.06,0.05 z" id="Webb" fill="#0D0596" style="fill:#0D0596;fill-opacity:1"/>
    <path d="m 649.96,231.09 4.5,-2.76 0.71,-1.54 2.62,-2.1 3.15,0.06 1.72,-0.79 1.92,-2.76 1.7,-0.72 3.31,0.57 2.39,-0.17 3.69,-1.58 3.97,0.05 1.21,0.32 1.61,-1.19 0.3,5.45 1.01,23.97 -21.32,1.08 -0.2,-1.35 -11.65,0.48 z" id="Hopkins" fill="#0D0596" style="fill:#0D0596;fill-opacity:1"/>
    <path d="m 680.74,182.97 1.27,0.25 1.31,-1.65 0.79,0.05 v -3.15 l 2.06,-1.78 3.39,1.6 1.61,-0.04 0.03,1.49 0.9,0.84 1.63,-0.83 1.76,0.79 0.93,2.76 3.23,0.56 1.38,-0.67 1.06,3.12 4.91,4.55 1.54,0.6 3.63,0.13 0.93,0.53 2.25,-0.07 -0.56,1.72 1.28,26.53 -1.52,0.71 -1.2,-2.45 -1.08,-0.53 -1.34,-1.3 -1.62,0.51 -1.15,-1.18 -2.99,0.88 -5.4,-0.25 -1.24,0.76 -3.78,-0.92 -1.43,0.57 -1.17,0.59 -4.6,0.49 -1.11,0.77 -3.49,-0.87 -0.38,0.33 -0.13,-0.18 -0.59,-10.72 z" id="Red River" fill="#0D0596" style="fill:#0D0596;fill-opacity:1"/>
    <path d="m 97.97,414.38 19.55,5.35 33.89,9.21 12.23,3.27 6.17,0.17 -0.09,7.26 -0.66,22 -0.47,19.55 -0.3,15.7 -0.52,17.09 -0.79,0.12 -2.02,-1.33 -3.77,-0.77 -1.22,0.13 -2.61,-1.05 -0.87,0.16 -2.71,-1.22 -3.82,-2.55 -1.64,-2.05 -3.6,-1.71 -1.47,-3.24 -1.05,-0.64 0.21,-2.2 -3.19,-2.42 -2.15,-0.84 -2.57,0.21 -3.41,-2.69 -0.27,-1.17 -4.05,-2.77 -0.54,-1.35 -2.43,-0.98 -0.55,-1.97 -0.82,-0.79 -0.47,-4.42 -1.22,-0.91 0.32,-1.24 -1.49,-2.04 -1.28,-3.43 -3.55,-4.72 -0.46,-1.81 0.11,-2.93 -1.18,-3.4 -0.11,-1.88 1.39,-2.19 -0.51,-3.68 0.72,-3.15 -2.67,-5.98 -1.61,-0.85 0.03,-2.01 -2.13,-2.19 -0.88,-0.27 0.15,-2.06 -2.92,-2.09 0.18,-1.31 -0.52,-2.5 -0.07,-4.76 -1.49,-4.29 -1.82,-2.12 -2.55,-0.89 z" id="Presidio" fill="#0D0596" style="fill:#0D0596;fill-opacity:1"/>
    <path d="m 220.73,222.46 27.51,0.61 0.02,0.95 -0.65,29.56 -28.11,-0.65 0.18,-5.65 z" id="Yoakum" fill="#0D0596" style="fill:#0D0596;fill-opacity:1"/>
    <path d="m 511.67,327.67 12.14,-7.37 15.01,24.2 -24.81,15.34 -5.47,3.46 -12.05,-18.78 18.42,-11.53 z" id="Hamilton" fill="#0D0596" style="fill:#0D0596;fill-opacity:1"/>
    <path d="m 159.79,319.34 2.68,0.08 0.19,1.43 1.49,-0.47 0.57,3.06 1.11,0.18 0.53,2.87 1.78,0.8 1.05,1.28 1.53,-1.02 1.41,2.69 0.21,4.11 3.22,3.89 1.43,0.2 1.84,-0.63 0.89,0.47 1.53,2.3 2.03,0.45 -0.43,2.25 1.22,1.55 2.26,1.45 1.56,-0.81 2.07,1.37 0.36,2.51 -0.58,0.81 1.05,2.22 -0.52,2.43 1.27,2.64 -0.12,2.13 1.73,1.57 3.66,-0.3 0.77,1.04 1.95,-0.41 1.29,0.77 1.5,-0.54 1.35,0.43 0.85,-0.82 1.11,2.49 4.01,1.71 2.34,0.41 4.56,0.13 0.74,-1.35 2.72,1 -15.23,17.66 -7.7,9.01 -13.27,15.3 -30.87,-25.03 z" id="Reeves" fill="#0D0596" style="fill:#0D0596;fill-opacity:1"/>
    <path d="m 301.5,285.26 30.92,0.38 -0.8,31.02 -4.85,-0.04 -26.03,-0.29 z" id="Howard" fill="#0D0596" style="fill:#0D0596;fill-opacity:1"/>
    <path d="m 396.34,414.56 30.1,-0.14 8.67,-0.07 0.08,14.98 11.09,-0.11 0.28,15.13 -27.86,-0.09 -22.32,0.11 z" id="Kimble" fill="#0D0596" style="fill:#0D0596;fill-opacity:1"/>
    <path d="m 641.41,455.14 1.84,1.35 2.13,3.12 -1.21,0.67 0.6,1.27 -2.08,3.23 1.16,1.26 -0.76,1.2 1.94,1.5 -1.52,2.71 1.29,2.06 3.31,0.33 1.35,3.4 -0.12,1.9 1.26,2.74 -0.93,0.99 0.84,2.08 -0.34,3.04 -3.96,0.24 -1.76,-1.47 -1.57,0.32 -2.12,-0.93 -1.55,-1.55 -3.77,-0.77 -1.15,-2.06 0.39,-1.27 -1.27,-0.72 -1.41,-2 -0.26,-2.07 -1.07,-2.02 -3.03,-0.66 -2.06,0.12 -1.42,-1.6 -3.16,-1.27 -3.23,-2.73 -2.24,-3.77 -3.41,-5.76 2.18,-1.52 4.13,-0.18 14.3,-2.72 1.68,1.4 1.9,-0.06 4.11,1.46 z" id="Austin" fill="#0D0596" style="fill:#0D0596;fill-opacity:1"/>
    <path d="m 403.43,223.77 30.91,-0.28 0.31,31.4 -8.43,0.06 -22.56,-0.11 -0.11,-20.86 z" id="Haskell" fill="#0D0596" style="fill:#0D0596;fill-opacity:1"/>
    <path d="m 295.46,347.23 30.88,0.36 -0.09,6.7 -0.04,1.97 -0.68,31.88 -30.62,-0.35 0.08,-3.22 z" id="Reagan" fill="#0D0596" style="fill:#0D0596;fill-opacity:1"/>
    <path d="m 162.47,319.42 15.56,0.49 23.97,0.67 -0.73,24.76 -17.2,-0.51 -1.22,-1.55 0.43,-2.25 -2.03,-0.45 -1.53,-2.3 -0.89,-0.47 -1.84,0.63 -1.43,-0.2 -3.22,-3.89 -0.21,-4.11 -1.41,-2.69 -1.53,1.02 -1.05,-1.28 -1.78,-0.8 -0.53,-2.87 -1.11,-0.18 -0.57,-3.06 -1.49,0.47 z" id="Loving" fill="#0D0596" style="fill:#0D0596;fill-opacity:1"/>
    <path d="m 616.85,293.5 22.68,-0.74 28.44,-1 9.3,-0.4 -0.42,1.87 0.64,2.03 -0.99,3.86 -1.06,1.55 1.5,1.62 -0.88,3.57 1.25,1.11 0.54,1.96 1.51,1.58 -21.92,4.32 -15.56,2.82 -0.14,-0.47 -0.77,-1.76 -0.11,-3.41 -2,0.4 -1.15,-0.93 0.1,-2.25 0.7,-1.14 -0.66,-1.01 -1.96,0.36 -1.95,-1.96 1.2,-1.05 -0.02,-1.38 -2.02,0.97 -2.5,-2.31 -1.66,-0.57 -1.74,-1.26 -0.81,-2.42 -2.09,-0.3 -3.19,-1.7 -2.79,-0.13 z" id="Henderson" fill="#0D0596" style="fill:#0D0596;fill-opacity:1"/>
    <path d="m 264.96,315.83 4.58,0.09 26.3,0.39 -0.38,30.92 -31.06,-0.47 z" id="Midland" fill="#0D0596" style="fill:#0D0596;fill-opacity:1"/>
    <path d="m 169.81,432.38 22.68,-17.32 52.66,44.79 14.98,12.63 -1.27,0.66 -1.48,1.67 0.11,0.87 -1.75,3.55 -1.27,1.25 -1.55,-0.88 -1.44,0.11 -1.77,-0.87 -3.84,2.9 -1.46,-0.89 -2.54,0.56 -0.61,0.8 -2.4,-0.01 -0.77,-0.62 -1.12,1.63 -0.86,3.53 -2.42,2.71 0.09,2.37 -1.41,1.36 -0.91,2.27 -2.07,1.72 0.04,2.01 -1.54,3.5 0.26,3.37 -0.92,2.67 -2.41,0.26 -0.74,4.43 -1.17,2.09 2.14,1.5 -0.46,1.9 -2.15,0.55 -1.98,1.03 -3.4,1.02 -2.5,5.4 -1.16,-0.16 -1.61,0.94 -1.29,1.82 0.08,2.39 -1.26,1.88 -2.38,1.97 -1,-0.66 -3.39,-0.76 -1.52,0.63 -1.02,-1.12 -4.01,-1.55 -0.79,-2.07 -1.02,1.86 -3.4,-1.47 -2.09,-2.01 -3.03,-3.67 -1.52,-0.41 0.07,-1.09 -1.6,-1.45 -2.63,0.35 -1.09,-1.14 -1.83,0.27 -3.97,-1.78 -0.94,0.2 -4.39,-5.89 0.52,-17.09 0.3,-15.7 0.47,-19.55 0.66,-22 z" id="Brewster" fill="#0D0596" style="fill:#0D0596;fill-opacity:1"/>
    <path d="m 660.58,514.09 1.55,-2.4 2.96,-3.34 0.9,0.79 1.85,-2.08 5.05,1.56 2.6,0.38 0.14,-1.2 1.26,-1.45 1.01,0.07 0.98,-4.04 1.5,-0.87 -0.61,-2.12 0.29,-0.93 5.46,-0.3 1.94,-10.11 2.95,-0.7 1.85,0.11 0.84,-0.99 4.4,0.22 0.6,2.75 2.32,-0.25 -0.74,6.46 11.81,18.28 -2.42,1.76 -1.23,-1.52 -2.55,0.44 0.5,1.1 -0.89,4.17 2.87,3.46 -7.68,6.87 -2.55,3.08 -2.75,2.16 -2.57,2.86 -5.03,1.93 -2.55,1.56 -3.78,-0.14 -0.82,-2.09 -4.03,-2.96 -0.98,-3.35 -2.8,-1.17 -4.1,0.33 -0.92,-2.07 -0.08,-3.38 0.72,-1.15 -1.7,-0.7 -0.93,-1.33 -2.27,-0.52 v -2.92 l -0.7,-0.8 0.68,-1.76 -1.24,-1.16 0.79,-0.84 z" id="Brazoria" fill="#0D0596" style="fill:#0D0596;fill-opacity:1"/>
    <path d="m 295.27,443.98 23.59,0.26 25.54,0.21 16.03,0.04 -0.13,47.15 v 14.49 l -0.43,1.29 -0.4,4.51 -2.14,0.86 0.46,2.51 -0.42,2.52 -3.07,0.93 -3.82,-2.44 -1.35,-0.37 -0.53,-1.92 -3.34,-1.81 -0.51,-1.01 -3.43,-1.26 -1.99,-2.95 -1.44,-3.74 -1.68,-0.77 -1.74,0.05 -2.27,-0.62 -1.34,-2.67 -3.81,-0.76 -1.6,-0.86 1.26,-2.03 -0.67,-2.75 -1.74,-0.77 0.14,1.7 -0.82,1.36 -1.28,-1 -0.07,-1.81 0.83,-2.08 -0.91,-1.34 -1.89,-0.23 -1.7,-1.29 -0.13,-1.54 -1.41,-1.09 -0.09,-3.06 -0.59,-0.75 -1.6,1.27 -0.92,-0.07 -0.67,-2.6 -2.59,1.77 -2.23,0.17 0.28,-2.54 -2.02,-0.1 -0.6,2.1 -1.91,-0.35 -2.4,1.35 -0.98,-1.22 -3.08,0.57 -3,-1.39 0.14,-6.63 z" id="Val Verde" fill="#3933E5" style="fill:#3933E5;fill-opacity:1"/>
    <path d="m 341.04,192.67 30.99,-0.02 0.03,31.11 -3.34,-0.05 -27.73,-0.02 z" id="Dickens" fill="#0D0596" style="fill:#0D0596;fill-opacity:1"/>
    <path d="m 627.44,364.26 -0.11,-1.27 4.99,-2.9 26.73,-15.6 1.23,1.44 1.12,-1.49 -0.6,-1.81 1.28,-0.78 1.66,2.65 -0.54,1.7 0.21,2.71 -2.01,0.23 -0.23,1.47 1.13,1.87 1.86,3.47 0.05,2.17 2.41,4 0.1,1.49 1.19,1.02 -4.07,4.33 -0.03,3.3 -1.17,1.21 0.23,1.87 1.07,1.22 -2.78,2.1 0.81,2.94 -12.78,0.66 -2.03,1.44 -2.48,0.44 -2.03,1.75 -5.26,3.78 -4.19,1.61 0.1,-1.71 -1.4,-0.71 0.76,-3.09 -0.78,-1.71 -1.43,-1.37 0.18,-1.44 -1.12,-1.56 -0.42,-3.21 -0.69,-1.14 -0.72,-2.87 0.26,-1.74 -0.86,-1.44 0.57,-2.63 z" id="Leon" fill="#0D0596" style="fill:#0D0596;fill-opacity:1"/>
    <path d="m 714.79,193.77 0.65,0.76 5.18,0.28 0.72,1.35 1.15,-1.25 0.93,1.25 1.29,-1.19 0.68,1.86 1.21,-0.67 0.01,2.29 2.81,0.41 0.74,-1.14 1.74,-0.62 0.8,0.6 -0.17,3.02 h 1.43 l 2.57,3.02 2.01,0.15 0.13,-1.25 2.59,0.5 0.57,-1.78 2.39,-0.58 0.55,1.81 1.43,0.19 0.8,-2.19 1.56,-0.91 1.31,0.34 0.91,1.6 3.87,-0.91 0.71,1.5 1.71,0.01 1.16,19.94 -1.22,-1.97 -4.61,0.69 -1.68,-1.15 -2.76,1.23 -1.09,1.48 -0.13,2.53 -2.49,-0.51 h -3.85 l -1.09,-0.81 -1.07,0.72 -3.06,-1.96 -0.9,0.35 -1.49,-0.85 -2.9,1.02 -3.94,2.51 -1.93,0.3 -2.09,-1.46 -2.17,-1.64 -0.46,-1.25 -1.9,0.4 -1.33,-1.49 z" id="Bowie" fill="#0D0596" style="fill:#0D0596;fill-opacity:1"/>
    <path d="m 433.91,192.58 30.99,-0.31 0.34,31.02 -30.9,0.2 -0.31,-23.79 z" id="Baylor" fill="#0D0596" style="fill:#0D0596;fill-opacity:1"/>
    <path d="m 40.53,314.16 34.35,1.78 30.88,1.36 -0.63,16.78 -0.09,7.32 -1.17,35.45 -0.86,23.05 -0.53,-0.02 -0.56,12.22 -3.95,2.28 -0.28,-2.41 -1.23,-1.72 -2.53,0.31 -1.21,-1.59 -1.73,-1.09 -1.23,-2.43 -2.56,-0.36 -1.95,-2.83 -1.3,-1.04 -2.5,0.69 -2,-2.33 -1.7,-0.16 -1.13,-0.98 -3.4,-0.76 0.17,-1.94 -1.14,-1.69 -1.7,-0.77 -0.53,-1.13 -2.16,-1.41 -0.66,-1.64 -1.91,-1.39 -1.44,-0.4 -1.42,-2.76 -0.11,-2.1 -1.2,-2.1 -2.18,-1.12 -0.32,-1.19 -3.63,-1.63 -1.86,-2.08 -1.92,-0.27 -1.17,-2.57 -4.25,-6.36 -1.66,-0.39 -0.66,-1.43 -1.45,-0.1 -1.1,-3.72 -0.99,-0.14 -1.57,-1.59 2.48,-2.45 0.15,-3.89 -2.06,-0.11 z" id="Hudspeth" fill="#0D0596" style="fill:#0D0596;fill-opacity:1"/>
    <path d="m 578.23,281.2 2.91,-0.04 30.62,-0.74 1.57,1.48 -0.25,2.86 2.08,3.42 2.41,1.49 0.29,1.63 -1.01,2.2 1.47,1.83 2.79,0.13 -14.31,9.19 -16.05,9.93 -2.64,1.64 -9.23,-14.88 z" id="Ellis" fill="#0D0596" style="fill:#0D0596;fill-opacity:1"/>
    <path d="m 528.76,556.42 5.6,-2.21 2,1.68 3.44,1.19 2.58,0.07 0.61,0.54 1.47,0.89 1.53,1.88 2.34,6.09 3.17,1.38 1.24,-0.55 3.11,0.33 1.49,1.36 0.08,3.38 2.03,0.55 0.28,1.05 2.34,-0.2 1.38,1.84 2.02,-0.35 3.27,1.55 -9.99,16.17 -1.61,2.53 -15.82,-2.98 0.55,-0.48 -18.36,-33.66 z" id="Bee" fill="#3933E5" style="fill:#3933E5;fill-opacity:1"/>
    <path d="m 721.19,268.18 -0.52,-9.99 12.04,6.44 6.98,-0.42 2.01,-0.91 2.28,-1.84 1.84,-0.12 0.13,-1.19 2.4,-0.41 1.39,3.29 3.05,0.29 0.53,-1.77 1.74,-1.31 1.71,-0.07 0.98,1.14 -0.63,1.15 0.59,1.13 2.83,-0.43 1.22,21.32 -18.47,5.53 -1.54,-0.87 -0.52,-1.74 -2.18,-0.05 -0.87,0.61 -3.43,-2.13 -1.49,0.54 -1,-1.07 -1.4,-0.22 -1.37,0.96 -3.74,-0.03 -1.93,-1.59 -1.81,0.1 z" id="Harrison" fill="#0D0596" style="fill:#0D0596;fill-opacity:1"/>
    <path d="m 235.27,346.15 27.27,0.57 -0.06,19.65 0.14,12.52 0.3,5.03 -0.07,2.92 -5.35,-0.17 -1.07,-0.57 -1.29,-2.21 0.34,-2.13 -0.89,-3.72 -2.25,-1.55 -2.07,-2.19 -3.87,-1.01 -1.3,0.59 -1.2,-1.83 -3.4,-2.81 -3.18,1.33 -0.34,1.46 -1.43,0.57 -0.84,-1.05 z" id="Crane" fill="#0D0596" style="fill:#0D0596;fill-opacity:1"/>
    <path d="m 572.19,543.03 16.62,-14.69 3.45,-2.93 2.45,2.83 6.73,2.77 1.39,2.84 0.27,1.74 1.09,2.65 3.69,1.96 1.47,2.62 -0.43,2.45 1.59,1.76 -0.23,0.93 1.87,1.18 0.15,1.67 1.63,1.75 -1.38,0.51 -3.49,2.66 -8.12,2.72 -4.69,3.58 1.71,1.35 0.58,1.27 -0.63,1.22 0.99,1.73 -2.11,1.41 -2.79,-1.12 -0.8,0.42 -3.69,-2.19 -0.6,-1.15 -2.87,0.8 -0.67,-1.14 -1.39,0.71 -2.09,-0.52 -0.16,-1.28 -1.31,-2.73 0.68,-8.35 -0.53,-1 0.98,-2.45 -2.05,-2.58 0.23,-1.37 -1.22,-1.56 -1.7,-0.68 -1.73,1.33 -2.06,0.04 z" id="Victoria" fill="#0D0596" style="fill:#0D0596;fill-opacity:1"/>
    <path d="m 727.06,421.54 11.95,-0.68 -0.61,-2.52 29.08,-1.51 -2.44,8.42 1.05,1.18 0.36,2.15 1.05,1.32 -1.13,1.21 -0.86,2.94 0.91,2.18 -0.63,0.91 0.17,1.61 1.4,1.05 -0.92,1.13 -0.22,1.96 -3.32,-0.74 -2.2,-0.98 -1.9,1.78 -2.44,-0.22 0.05,2.12 -0.91,1.67 -1.4,0.07 -1.37,1.02 -2.34,-0.21 -1.38,0.91 -2.87,-0.96 -9.33,0.55 z" id="Hardin" fill="#0D0596" style="fill:#0D0596;fill-opacity:1"/>
    <path d="m 344.57,414.77 20.49,0.01 31.28,-0.22 0.04,29.81 -35.95,0.12 -16.03,-0.04 z" id="Sutton" fill="#0D0596" style="fill:#0D0596;fill-opacity:1"/>
    <path d="m 594.71,528.24 5.52,-4.89 11.47,-9.9 1.16,1.1 21.33,19.47 -0.16,20.44 -5.06,0.27 0.17,-3.97 -1.74,1.95 -2.95,-0.12 -6.2,0.3 -0.72,-1.34 -3.6,1.01 -1.63,-1.75 -0.15,-1.67 -1.87,-1.18 0.23,-0.93 -1.59,-1.76 0.43,-2.45 -1.47,-2.62 -3.69,-1.96 -1.09,-2.65 -0.27,-1.74 -1.39,-2.84 z" id="Jackson" fill="#0D0596" style="fill:#0D0596;fill-opacity:1"/>
    <path d="m 372.03,192.65 27.9,-0.04 h 3.08 l 0.42,31.16 -31.37,-0.01 z" id="King" fill="#0D0596" style="fill:#0D0596;fill-opacity:1"/>
    <path d="m 479,560.33 29.17,-0.53 0.05,2.53 0.25,11.68 0.5,27.72 -29.54,0.49 0.06,-10.29 -0.12,-3.41 z" id="McMullen" fill="#0D0596" style="fill:#0D0596;fill-opacity:1"/>
    <path d="m 531.22,387.48 29.37,-18.51 4.72,5.27 3.91,-2.63 13.29,20.47 -11.36,7.18 -3.19,9.82 -19.11,-7.86 -12.54,-2.14 -0.79,-1.75 -2.94,-5.07 -1.59,-2.34 z" id="Bell" fill="#0D0596" style="fill:#0D0596;fill-opacity:1"/>
    <path d="m 363.34,285.72 30.93,0.2 -0.11,7.4 -0.17,23.85 -5.03,0.02 -5.43,0.08 -20.57,-0.32 z" id="Nolan" fill="#0D0596" style="fill:#0D0596;fill-opacity:1"/>
    <path d="m 396.75,560.92 12.6,0.06 2.37,0.2 21.83,-0.03 7.37,0.08 0.83,-0.02 0.12,15.23 0.24,15.74 -30.23,0.53 -15.03,0.19 z" id="Dimmit" fill="#3933E5" style="fill:#3933E5;fill-opacity:1"/>
    <path d="m 310.05,192.62 30.99,0.05 -0.05,31.02 -19.62,-0.11 -11.26,0.01 z" id="Crosby" fill="#0D0596" style="fill:#0D0596;fill-opacity:1"/>
    <path d="m 371.01,96.79 31.48,0.01 0.1,31.06 -24.41,-0.06 -7.33,-0.02 z" id="Collingsworth" fill="#0D0596" style="fill:#0D0596;fill-opacity:1"/>
    <path d="m 487.51,482.27 9.77,-9.44 4.37,-4.44 7.06,-7.25 16.77,13.12 2.07,6.77 -5.51,5.01 -6.89,3.5 -6.69,3.08 -1.77,-1.29 -0.42,-2.97 -2.11,-0.52 -0.15,-2.88 1.61,-0.05 0.96,-1.29 -1.08,-0.85 -2.69,-0.24 -1.19,0.63 -3.62,-0.22 -4.15,-1.25 -1.95,0.17 -1.74,0.75 z" id="Comal" fill="#3933E5" style="fill:#3933E5;fill-opacity:1"/>
    <path d="m 578.38,429.74 11.55,-7.43 2.79,1.19 3.2,7.27 1.5,0.24 4.84,4.58 1.04,2.49 0.87,0.72 h 3.31 l 1.47,1.48 1.41,-0.13 -2.64,2.97 -2.84,0.97 -0.58,1.14 -0.06,2.28 -3.03,2.61 -3.07,3.26 -10.51,6.28 -0.36,-1.37 -3.97,-14.64 -7.37,-5.33 -8.47,-4.41 z" id="Lee" fill="#0D0596" style="fill:#0D0596;fill-opacity:1"/>
    <path d="m 641.88,317.65 15.56,-2.82 21.92,-4.32 -0.52,1.18 0.98,3.48 -1.42,1.91 -0.15,2.36 1.87,2.06 -0.87,6.24 1.1,0.02 1.33,1.31 0.89,4.38 1.81,0.43 -0.1,1.76 1.67,-0.63 1.08,2.17 1.74,1.24 1.19,1.98 -0.25,2.27 1.39,1.19 -0.77,1.09 -13.27,2.58 -9.56,2.05 0.33,1.04 -5.53,1.86 -1.13,-1.87 0.23,-1.47 2.01,-0.23 -0.21,-2.71 0.54,-1.7 -1.66,-2.65 -1.28,0.78 0.6,1.81 -1.12,1.49 -1.23,-1.44 -0.68,-3.98 -0.79,0.23 -1.67,-1.61 -2.75,-0.44 0.74,-1.74 -0.62,-1.97 -1.37,-0.75 -1.59,0.14 -3.65,-1.57 0.54,-2.09 -1.36,-1.67 0.45,-1.21 -2.55,-1.16 1.17,-3.35 -0.56,-1.52 -3.14,-2.34 z" id="Anderson" fill="#0D0596" style="fill:#0D0596;fill-opacity:1"/>
    <path d="m 464.9,192.27 31.41,-0.61 0.28,15.43 0.3,10.81 0.13,5.01 -19.65,0.35 -12.13,0.03 z" id="Archer" fill="#0D0596" style="fill:#0D0596;fill-opacity:1"/>
    <path d="m 580.96,717.15 1.16,-0.04 2.3,8.57 1.03,5 1.41,9.08 -0.38,-0.11 -1.08,-3.82 0.13,-2.41 -1.37,-6.88 -1.61,-6.48 z m -39.08,25.28 -0.45,-19.81 21.51,2.97 0.36,-1.9 1.81,-0.82 2.95,0.76 1.1,-2.87 1.73,-1.51 0.89,-1.8 2.41,-0.11 3.54,8.09 1.04,1.08 -1.09,1.44 -1.08,2.64 1.47,2.22 -0.49,1.54 1.22,2.99 -0.29,1.69 1.4,1.29 3.95,0.35 0.86,2.33 1.94,-1.29 0.81,1.75 0.56,6.08 -1.71,-0.75 -0.91,0.74 -2.42,-0.26 -1.37,0.82 -1.92,-0.23 0.01,1.19 -1.76,0.03 -1.29,0.86 -1.52,-0.46 -1.09,2.07 0.5,2.15 -0.82,2.3 -3.54,-0.06 -0.99,-0.39 -1.05,-2.55 -2.52,0.33 -1.45,-0.35 -0.73,-2.14 -1.02,-1.15 -2.26,-0.37 -0.1,-1.57 -1.31,0.28 -0.43,-1.35 -2.45,-2.1 -3.7,-1.65 -4.84,0.25 -1.29,-0.74 -0.21,-1.36 -3.91,0.45 z" id="Cameron" fill="#3933E5" style="fill:#3933E5;fill-opacity:1"/>
    <path d="m 285.23,127.03 21.69,0.32 9.26,0.12 -0.32,30.95 -5.51,-0.07 -25.55,-0.37 z" id="Swisher" fill="#0D0596" style="fill:#0D0596;fill-opacity:1"/>
    <path d="m 105.76,317.3 8.83,0.57 1.07,-0.18 13.47,0.55 30.66,1.1 -6.86,63.31 -18.8,10.78 -32.21,18.67 0.56,-12.22 0.53,0.02 0.86,-23.05 1.17,-35.45 0.09,-7.32 z" id="Culberson" fill="#0D0596" style="fill:#0D0596;fill-opacity:1"/>
    <path d="m 40.53,314.16 -1.6,37.15 2.06,0.11 -0.15,3.89 -2.48,2.45 -0.45,-0.39 -4.22,-0.58 -2.19,-1.96 -1.25,-0.2 -2.77,-2.4 -1.36,-0.56 -0.93,-1.3 -1.34,-4.13 -2.09,-1.81 -1.38,-4.84 -1.49,-2.53 -0.77,-2.36 -1.4,-1.36 -0.37,-1.25 -4.12,-2.52 -2.39,1 -2.23,-2.49 -1.02,-1.87 -1.81,-0.33 -1.63,-1.33 0.25,-0.82 -1.95,-2 0.48,-1.22 -0.93,-0.84 1.41,-2.09 0.13,-2.53 -0.85,-1.42 1.35,-1.36 z" id="El Paso" fill="#0D0596" style="fill:#0D0596;fill-opacity:1"/>
    <path d="m 308.68,2.53 31.04,0.31 -0.25,31.5 v 0.17 l -31.13,-0.3 z" id="Hansford" fill="#0D0596" style="fill:#0D0596;fill-opacity:1"/>
    <path d="m 650.6,248.11 11.65,-0.48 0.2,1.35 2.54,16.96 -1.42,0.69 -2,-1.75 -3.84,-1.3 -0.72,-0.95 -1.74,-0.22 -1.25,0.78 -1.68,-0.2 -4.87,-3.12 -0.77,-1.48 -1.43,-0.58 -1.79,-1.85 0.47,-0.95 1.7,-6.72 z" id="Rains" fill="#0D0596" style="fill:#0D0596;fill-opacity:1"/>
    <path d="m 589.93,422.31 20.6,-12.98 3.42,2.38 -1.03,0.92 0.13,1.37 -0.93,1.77 3.14,0.7 2.47,0.11 1.46,1.47 0.95,-0.26 1.99,2.19 0.87,-0.23 0.37,2.26 1.96,0.89 1.76,-0.72 0.19,1.96 1.1,1.36 1.16,2.48 1.98,0.98 0.55,1.21 -1.37,2.53 0.47,0.88 -0.88,-0.33 -1.63,1.21 -1.15,-0.29 -1.09,1.23 -2.52,0.31 -4.7,2.18 -4.07,0.28 -0.66,0.85 -4.11,1.13 -1.41,0.13 -1.47,-1.48 h -3.31 l -0.87,-0.72 -1.04,-2.49 -4.84,-4.58 -1.5,-0.24 -3.2,-7.27 z" id="Burleson" fill="#0D0596" style="fill:#0D0596;fill-opacity:1"/>
    <path d="m 326.34,347.59 0.43,-30.97 4.85,0.04 21.9,0.17 -0.35,27.72 -2.16,-0.67 -0.3,10.16 -24.46,0.25 z" id="Sterling" fill="#0D0596" style="fill:#0D0596;fill-opacity:1"/>
    <path d="m 692.97,243.86 1.49,-1.57 1.88,-0.3 2.69,-2.17 2.15,-0.77 3.95,-0.14 5.35,4.79 2.47,1.38 2.09,1.58 1.03,2.2 2.63,0.86 0.5,0.62 -10.79,0.67 -15.07,0.71 z" id="Camp" fill="#0D0596" style="fill:#0D0596;fill-opacity:1"/>
    <path d="m 508.46,492.62 6.69,-3.08 6.89,-3.5 5.51,-5.01 3.37,-3.93 4.14,-3.73 2.38,2.05 -0.25,2.08 4.65,3.98 2.13,3.54 4.52,1.61 1.9,1.17 -12.4,19.68 -15.19,0.12 -1.75,1.02 -0.6,-0.89 -0.81,-4.48 1.04,-1.59 -0.73,-1.31 -2.26,0.36 -2.55,-3.08 -0.89,-0.11 -0.25,-1.78 -1.29,-0.54 -1.67,0.83 -1.73,-1.05 z" id="Guadalupe" fill="#584CDE" style="fill:#584CDE;fill-opacity:1"/>
    <path d="m 523.15,419.25 5.1,-11.57 8.06,-8.6 12.54,2.14 19.11,7.86 2.82,1.13 7.6,19.53 -10.92,4.17 -2.18,-1.13 -1.39,-1.19 -1.46,-0.07 -1.2,-1.48 -4.16,-1.14 -2.57,-0.07 -1.58,-1.42 -1.72,-0.08 -3.35,1.97 -1.94,-0.33 -0.33,1.34 -3.55,0.94 -0.39,1.15 -3.61,-0.9 -2.16,-1.82 -1.61,-3.46 0.18,-1.7 -1.23,-0.69 -4.35,-4.99 -2.08,1.35 -2.38,-0.29 z" id="Williamson" fill="#0D0596" style="fill:#0D0596;fill-opacity:1"/>
    <path d="m 677.31,306.97 7.08,-0.31 21.55,-1.17 1.02,20.69 2.87,-0.1 0.14,0.99 -0.98,2.51 -1.02,1.08 2.04,0.62 0.56,1.2 -2.06,0.1 -0.4,1.09 0.87,1.08 0.2,2.63 1.16,4.2 1.06,1.45 0.7,2.52 1.44,-0.59 -0.17,2.25 1.9,1.25 -8,7.58 -3.03,-1.8 -0.58,-1.03 -2.42,0.04 -0.65,-1.38 0.92,-1.05 -0.42,-1.11 -1.61,-1.23 -1.1,-0.12 -0.45,-2.06 -1.7,-1.05 -1.9,1.13 -2.93,-0.29 -1.07,-1.14 0.77,-1.09 -1.39,-1.19 0.25,-2.27 -1.19,-1.98 -1.74,-1.24 -1.08,-2.17 -1.67,0.63 0.1,-1.76 -1.81,-0.43 -0.89,-4.38 -1.33,-1.31 -1.1,-0.02 0.87,-6.24 -1.87,-2.06 0.15,-2.36 1.42,-1.91 -0.98,-3.48 0.52,-1.18 -1.51,-1.58 z" id="Cherokee" fill="#0D0596" style="fill:#0D0596;fill-opacity:1"/>
    <path d="m 202,320.58 15.84,0.4 0.16,-6.14 15.88,0.36 0.14,0.1 -0.3,15.77 -0.37,15.03 -12.41,-0.26 -19.67,-0.5 z" id="Winkler" fill="#0D0596" style="fill:#0D0596;fill-opacity:1"/>
    <path d="m 353.52,316.83 9.44,0.12 20.57,0.32 5.43,-0.08 -0.01,27.65 -19.88,-0.06 -15.9,-0.23 z" id="Coke" fill="#0D0596" style="fill:#0D0596;fill-opacity:1"/>
    <path d="m 477.63,486.28 1.69,-2.11 2.52,0.22 2.32,-1.51 3.35,-0.61 2.65,0.34 1.74,-0.75 1.95,-0.17 4.15,1.25 3.62,0.22 1.19,-0.63 2.69,0.24 1.08,0.85 -0.96,1.29 -1.61,0.05 0.15,2.88 2.11,0.52 0.42,2.97 1.77,1.29 0.85,2.36 1.73,1.05 1.67,-0.83 1.29,0.54 0.25,1.78 0.89,0.11 2.55,3.08 2.26,-0.36 0.73,1.31 -1.04,1.59 -0.19,0.1 -9.07,13.15 -7.31,10.29 -24.9,-9.28 z" id="Bexar" fill="#3933E5" style="fill:#3933E5;fill-opacity:1"/>
    <path d="m 378.18,127.8 24.41,0.06 0.04,13.22 0.16,0.01 0.05,17.68 -22.29,-0.03 -2.5,-0.06 0.12,-17.39 z" id="Childress" fill="#0D0596" style="fill:#0D0596;fill-opacity:1"/>
    <path d="m 641.74,317.18 0.14,0.47 -0.66,1.81 3.14,2.34 0.56,1.52 -1.17,3.35 2.55,1.16 -0.45,1.21 1.36,1.67 -0.54,2.09 3.65,1.57 1.59,-0.14 1.37,0.75 0.62,1.97 -0.74,1.74 2.75,0.44 1.67,1.61 0.79,-0.23 0.68,3.98 -26.73,15.6 -16.76,-26.59 9.55,-6 z" id="Freestone" fill="#0D0596" style="fill:#0D0596;fill-opacity:1"/>
    <path d="m 571.2,655.75 1.41,-0.03 -1.24,8.02 -0.29,4.49 0.05,6.58 0.27,3.52 0.98,6.69 1.87,7.97 1.79,6.14 1.54,4.65 -1.08,0.03 -1.5,-3.26 -4.27,-11.95 0.09,-1.64 -0.66,-2.01 0.41,-1.15 -0.23,-2.24 0.38,-2.98 -0.45,-0.99 0.27,-8.07 -0.62,-2.78 0.81,-6.11 -0.27,-2.59 0.76,-0.28 z m -39.01,5.82 1.9,-0.71 1.36,-1.37 5.87,-0.58 1.61,-0.88 -0.02,-1.13 1.36,-0.65 2.29,-0.25 1.27,0.67 0.68,0.82 5.08,-1.17 1.08,2.4 2.17,-0.11 4.3,0.88 1.85,-1.14 3.89,-1.47 1.03,0.4 -1.05,6.71 0.49,1.32 -0.33,11.23 -0.77,9.97 -1.1,2.92 1.1,7.98 1.37,4.27 0.34,2.39 -26.91,0.78 -6.14,-0.84 -1.79,-0.25 -0.26,-11.74 z" id="Kenedy" fill="#0D0596" style="fill:#0D0596;fill-opacity:1"/>
    <path d="m 615.53,463.78 2.24,3.77 3.23,2.73 3.16,1.27 1.42,1.6 2.06,-0.12 3.03,0.66 1.07,2.02 0.26,2.07 1.41,2 1.27,0.72 -0.39,1.27 1.15,2.06 3.77,0.77 1.55,1.55 -7.89,8.76 -2.27,7.74 -1.65,1.02 -13.89,9.53 -2.2,1.35 -1.16,-1.1 5.91,-5.28 -8.28,-9.14 -6.72,-7.55 -2.46,0.12 -0.71,-2.77 -1.98,-1.12 9.37,-11.65 z" id="Colorado" fill="#E27F7F" style="fill:#E27F7F;fill-opacity:1"/>
    <path d="m 226.29,32.75 30.87,0.68 19.94,0.36 -0.49,30.48 -26.24,-0.28 -24.88,-0.4 z" id="Hartley" fill="#0D0596" style="fill:#0D0596;fill-opacity:1"/>
    <path d="m 402.86,164.99 13.37,9.27 7.04,-0.44 1.77,0.21 0.47,0.93 1.9,0.27 0.59,1.04 2.05,0.08 3.74,-1.66 0.12,17.89 0.12,7.12 -1.09,-2.37 -2.95,-1.82 -3.44,0.4 -2,-1.89 -3.64,-0.87 -1.46,0.94 -2,0.51 -0.68,-1.09 -1.92,0.38 -2.27,-1.31 -9.57,0.03 h -3.08 l 0.01,-28 2.32,-0.74 z" id="Foard" fill="#0D0596" style="fill:#0D0596;fill-opacity:1"/>
    <path d="m 339.47,34.51 v -0.17 l 31.2,0.21 0.38,0.01 -0.1,21.84 0.05,9.32 -14.34,-0.13 -5.17,0.07 -12.24,-0.06 -0.01,-0.44 z" id="Roberts" fill="#0D0596" style="fill:#0D0596;fill-opacity:1"/>
    <path d="m 746.53,486.84 3.03,-0.82 0.89,-2.32 1.84,0.23 0.53,2.63 -7.22,3.59 -8.56,4.66 -2.98,2.09 -1.61,1.61 -1.58,2.72 -0.72,-0.44 -1.91,0.89 0.61,-2.09 2.74,-2.95 1.05,-0.51 0.62,-1.72 1.59,-1.33 2.31,0.01 1.51,-0.78 0.46,-1.54 1.94,-1.78 3.41,1.19 z m -20.93,17.64 0.69,-2.04 1.89,1.3 -1,1.48 z m -17.79,17.57 1.47,-2.21 3.44,-2.68 1.22,-1.58 1.79,-1.14 1.59,-2.12 1.05,-0.21 1.41,-2.34 1.78,-1.3 0.98,-1.43 3.27,-1.56 1.41,0.01 1.41,-0.96 0.45,-1.18 2.46,0.3 -4.03,3.54 -5.83,4.23 -8.25,6.23 -3.55,2.94 -1.12,1.4 z m -7.39,-32.86 1.09,0.77 2.33,3.17 3.7,-1.09 2,-3.33 3.26,0.44 1.49,1.96 1.15,0.55 4.05,0.87 -1.48,2.91 2.94,1.47 0.48,3.29 1.34,1.33 -2.5,2.07 1,1 -0.84,1.2 -1.84,-0.34 -2.02,2.35 -3.71,5.28 -1.37,0.84 -11.81,-18.28 z" id="Galveston" fill="#0D0596" style="fill:#0D0596;fill-opacity:1"/>
    <path d="m 596.88,383.18 5.87,-3.54 8.11,-5.12 16.58,-10.26 0.21,2.4 -0.57,2.63 0.86,1.44 -0.26,1.74 0.72,2.87 0.69,1.14 0.42,3.21 1.12,1.56 -0.18,1.44 1.43,1.37 0.78,1.71 -0.76,3.09 1.4,0.71 -0.1,1.71 -5.76,3.96 -2.91,4.15 -2.03,5.13 -1.97,3.49 -6.58,3.7 -3.42,-2.38 0.51,-1.84 -1.6,-2.81 -0.34,-1.5 -1.8,-1.06 -1.62,-2.23 0.55,-2.86 -2.95,0.4 -1.47,-1.76 0.03,-1.17 -1.03,-1.99 1.54,-1.66 -1.63,-0.51 -1.08,-4.11 -1.48,0.25 0.07,-1.57 z" id="Robertson" fill="#0D0596" style="fill:#0D0596;fill-opacity:1"/>
    <path d="m 746.14,447.35 2.87,0.96 1.38,-0.91 2.34,0.21 1.37,-1.02 1.4,-0.07 0.91,-1.67 -0.05,-2.12 2.44,0.22 1.9,-1.78 2.2,0.98 3.32,0.74 0.2,0.85 2.54,2.11 -1.06,2.4 3.8,0.98 0.22,2.75 2.05,-0.2 1.03,1.24 3.29,1.22 4.43,0.71 1.1,1.55 0.42,1.77 -0.7,4.63 -4.03,3.51 -0.29,1.56 1.98,1.7 0.72,2.05 1.19,0.41 2.17,3.06 0.06,0.82 -7.12,0.11 -3.02,0.3 -5.75,1.82 -5.4,2.59 -10.22,5.23 v -0.87 l -1.48,-22.14 -5.21,0.13 z" id="Jefferson" fill="#0D0596" style="fill:#0D0596;fill-opacity:1"/>
    <path d="m 735.45,380.69 2.77,0.41 3.68,1.07 1.4,1.32 1.31,-0.97 2.04,-0.24 2.15,-0.93 1.25,1.34 1.56,-1.13 1.12,1.1 1.76,-0.14 1.28,1.94 -0.58,1.59 2.62,3.52 0.63,4.47 1.08,1.87 0.16,2.04 2.51,0.93 0.93,2.66 -0.51,1.04 0.95,1.93 -0.02,1.31 2.09,-0.41 0.2,1.05 2.1,1.2 0.37,1.13 -1.97,3.14 0.2,3.44 0.95,1.46 -29.08,1.51 -8.64,-34.02 z" id="Tyler" fill="#0D0596" style="fill:#0D0596;fill-opacity:1"/>
    <path d="m 511.47,692.28 21.39,-0.26 0.26,11.74 1.79,0.25 -0.64,4.31 -0.97,1.07 -1.14,6.27 6.16,0.86 2.95,0.03 0.16,6.07 0.45,19.81 -0.42,0.9 -3.82,0.18 -1.43,-0.4 -1.09,0.75 -2.2,-0.9 -1.34,0.4 -1.06,1.34 -4.3,-1.78 -2.02,0.45 -0.48,0.87 -2.06,-1.77 -1,1.56 -1.85,-1.61 -1.8,0.35 -1.3,-1.48 -0.2,-1.49 -3.16,-0.2 -1.21,-2.36 -2.93,-0.33 -3.81,-2.96 0.12,-1.44 -1.45,-0.43 -2.39,1.18 -3.05,-1.72 -2.09,0.01 -0.46,-1.6 6.24,-14.35 3.51,-7.7 z" id="Hidalgo" fill="#584CDE" style="fill:#584CDE;fill-opacity:1"/>
    <path d="m 344.62,388.06 16.7,-0.22 26.78,-0.1 8.25,0.02 -0.01,26.8 -31.28,0.22 -20.49,-0.01 z" id="Schleicher" fill="#0D0596" style="fill:#0D0596;fill-opacity:1"/>
    <path d="m 394.27,285.92 16.74,0.08 14.35,-0.06 0.01,0.43 0.08,30.77 -4.99,-0.03 -8.98,0.09 -17.49,-0.03 0.17,-23.85 z" id="Taylor" fill="#0D0596" style="fill:#0D0596;fill-opacity:1"/>
    <path d="m 697.27,399.22 15.22,-16.17 5.51,-7.7 0.09,0.23 6.42,2.49 1.21,-0.29 3.78,1.37 2.16,-0.28 1.5,1.26 2.29,0.56 -5.69,3.63 8.64,34.02 0.61,2.52 -11.95,0.68 -2.73,0.22 -4.44,-0.11 -1.17,-1.16 2.02,-1.51 -0.64,-1.07 -1.98,0.1 -2.22,-0.99 -1.82,0.23 -1.62,-1.13 -3.86,0.05 1.14,-2.02 -1.14,-3.05 -1.94,-2.07 -2.44,1.51 -1.52,-1.12 -1.82,-2.76 0.05,-1.89 0.77,-1.13 -0.07,-1.58 -3.13,-2.46 z" id="Polk" fill="#0D0596" style="fill:#0D0596;fill-opacity:1"/>
    <path d="m 720.13,252.09 3.11,-0.18 36.56,-2.08 0.74,13.33 -2.83,0.43 -0.59,-1.13 0.63,-1.15 -0.98,-1.14 -1.71,0.07 -1.74,1.31 -0.53,1.77 -3.05,-0.29 -1.39,-3.29 -2.4,0.41 -0.13,1.19 -1.84,0.12 -2.28,1.84 -2.01,0.91 -6.98,0.42 -12.04,-6.44 v -3.7 z" id="Marion" fill="#0D0596" style="fill:#0D0596;fill-opacity:1"/>
    <path d="m 247.65,192.02 31.42,0.6 0.1,30.93 -25.14,-0.36 -5.79,-0.12 z" id="Hockley" fill="#0D0596" style="fill:#0D0596;fill-opacity:1"/>
    <path d="m 649.1,186.98 2.64,-1.61 1.84,1.06 1.08,-1.17 -0.38,-2.23 1.38,-0.29 1.36,0.72 1.51,-0.44 1.4,-1.47 1.98,0.07 1.68,-2.5 2.54,0.89 0.32,2.48 1.08,0.79 3.6,-0.09 1.92,0.9 4.64,-0.21 3.05,-0.91 1.11,24.54 0.59,10.72 -3.88,-0.66 -3.05,-1.53 -1.62,-1.28 -0.9,0.11 -1.58,-1.34 -2.17,0.64 -2.41,-2.11 -3.31,-0.57 -1.38,0.13 -1.59,1.02 -1.99,-0.91 -3.78,-0.42 -3.02,2.31 -2.25,0.25 -0.84,-25.71 z" id="Lamar" fill="#0D0596" style="fill:#0D0596;fill-opacity:1"/>
    <path d="m 446.28,429.22 20.88,-0.13 22.89,-0.42 0.5,17.99 0.13,7.62 -20.49,0.34 -23.49,0.54 -0.14,-10.81 z" id="Gillespie" fill="#FFB2B2" style="fill:#FFB2B2;fill-opacity:1"/>
    <path d="m 705.14,288.97 20.88,-1.01 2.3,0.62 1.17,-2.54 1.37,-0.96 1.4,0.22 1,1.07 1.49,-0.54 0.05,2.67 -1.39,3.69 -0.54,2.43 -1.5,1.7 -1.23,3.37 0.12,3.07 -0.68,3.44 -0.26,2.94 0.47,6.87 5.34,-0.33 0.18,3.38 1.74,1.51 1.46,2.22 0.67,1.9 -21.04,1.09 -8.31,0.3 -2.87,0.1 -1.02,-20.69 z" id="Rusk" fill="#0D0596" style="fill:#0D0596;fill-opacity:1"/>
    <path d="m 339.01,96.72 6.72,-0.04 25.28,0.11 -0.16,30.99 -23.74,-0.13 -8.57,-0.05 0.34,-19.84 z" id="Donley" fill="#0D0596" style="fill:#0D0596;fill-opacity:1"/>
    <path d="m 621.11,295.46 3.19,1.7 2.09,0.3 0.81,2.42 1.74,1.26 1.66,0.57 2.5,2.31 2.02,-0.97 0.02,1.38 -1.2,1.05 1.95,1.96 1.96,-0.36 0.66,1.01 -0.7,1.14 -0.1,2.25 1.15,0.93 2,-0.4 0.11,3.41 0.77,1.76 -16.63,10.32 -9.55,6 -13.52,-0.87 -11.29,-18.05 16.05,-9.93 z" id="Navarro" fill="#0D0596" style="fill:#0D0596;fill-opacity:1"/>
    <path d="m 714.9,479.82 0.45,-0.32 0.97,0.31 0.81,1.67 -1.04,1.28 z m -1.04,-14.58 29.7,-1.9 3.58,-0.16 5.21,-0.13 1.48,22.14 v 0.87 l -1.01,0.5 -0.53,-2.63 -1.84,-0.23 -0.89,2.32 -3.03,0.82 -2.99,1.31 -1.58,-2.13 -0.99,-0.13 -2.45,1.19 -9.86,3.02 0.69,-2.12 2.7,-6.24 0.54,-3.86 -0.59,-2.53 -0.05,-2.12 -2.3,-2.05 -5.08,2.47 -2.09,2.74 -1.15,3.62 -2.16,1.22 -1.45,-1.22 0.6,-0.89 -1.44,-2.69 1.32,-2.3 -0.39,-2.86 0.55,-2.31 -1.52,-0.38 -1.13,-1.38 -1.53,-0.84 z" id="Chambers" fill="#0D0596" style="fill:#0D0596;fill-opacity:1"/>
    <path d="m 568.74,576.89 13.15,-12.07 2.09,0.52 1.39,-0.71 0.67,1.14 2.87,-0.8 0.6,1.15 3.69,2.19 0.8,-0.42 2.79,1.12 2.11,-1.41 1.67,1.16 0.2,0.95 3.15,3.2 1.8,-1.23 1.14,1.84 v 0.02 l -1.2,1.31 -2.06,-1.66 -1.23,-0.41 -1.18,1.75 2.07,2.05 1.71,0.95 0.65,3.22 -20.8,3.92 1.41,3.26 2.46,1.24 2.89,0.36 -0.74,0.93 -2.81,1.1 -4.37,2.51 -2.46,1.99 -1.95,2.05 -0.19,0.82 -1.18,0.95 -1.33,-0.97 -2.76,-1.93 -1.01,-1.53 -2.3,0.26 -1.53,-0.97 -2.39,1.14 -1.59,-1.8 -2.54,-1.39 -2.41,1.29 -1.27,-0.92 z" id="Refugio" fill="#3933E5" style="fill:#3933E5;fill-opacity:1"/>
    <path d="m 633.2,391.28 4.19,-1.61 5.26,-3.78 2.03,-1.75 2.48,-0.44 2.03,-1.44 12.78,-0.66 2.54,0.92 4.05,-0.17 1.49,2.96 -1.73,0.36 0.35,1.19 -1.18,1.89 2.65,4.41 1.26,-0.32 -0.63,2.19 -1.65,0.34 -3.48,-0.85 -2.75,0.89 -1.53,1.48 -2.54,1.09 -2.22,0.18 -15.93,3.29 -2.63,0.36 -0.72,-2.55 -2.26,-3.62 0.63,-1.89 -1.61,-0.95 z" id="Madison" fill="#0D0596" style="fill:#0D0596;fill-opacity:1"/>
    <path d="m 518.79,433.39 1.65,-2.97 -0.05,-2.16 -1.54,0.81 4.3,-9.82 1.25,0.65 2.38,0.29 2.08,-1.35 4.35,4.99 1.23,0.69 -0.18,1.7 1.61,3.46 2.16,1.82 3.61,0.9 0.39,-1.15 3.55,-0.94 0.33,-1.34 1.94,0.33 3.35,-1.97 1.72,0.08 1.58,1.42 2.57,0.07 4.16,1.14 1.2,1.48 1.46,0.07 1.39,1.19 -7.19,15.07 -9.42,10.31 -3.59,3.25 -29.11,-23 z" id="Travis" fill="#0D0596" style="fill:#0D0596;fill-opacity:1"/>
    <path d="m 332.42,285.64 0.01,-0.25 8.43,0.04 15.1,0.26 7.38,0.03 -0.38,31.23 -9.44,-0.12 -21.9,-0.17 z" id="Mitchell" fill="#0D0596" style="fill:#0D0596;fill-opacity:1"/>
    <path d="m 693.32,217.1 1.43,-0.57 3.78,0.92 1.24,-0.76 5.4,0.25 2.99,-0.88 1.15,1.18 1.62,-0.51 1.34,1.3 0.22,6.49 0.46,20.56 -2.47,-1.38 -5.35,-4.79 -3.95,0.14 -2.15,0.77 -2.69,2.17 -1.88,0.3 -0.64,-15.8 z" id="Titus" fill="#0D0596" style="fill:#0D0596;fill-opacity:1"/>
    <path d="m 693.34,251.72 15.07,-0.71 10.79,-0.67 0.93,1.75 0.54,2.4 v 3.7 l 0.52,9.99 -3.41,-0.39 -3.46,5.09 -9.14,4.35 -0.7,-0.05 -1.24,1.51 -1.04,-1.39 -2.47,0.07 -1.16,-1.03 -3.05,0.49 -1.15,-1.51 z" id="Upshur" fill="#f8f5cf" style="fill:#656565;fill-opacity:1"/>
    <path d="m 542.99,557.69 12.5,-10.62 9.63,-8.19 2.91,1.77 1.97,0.2 1.9,1.3 0.29,0.88 0.83,1.16 2.06,-0.04 1.73,-1.33 1.7,0.68 1.22,1.56 -0.23,1.37 2.05,2.58 -0.98,2.45 0.53,1 -0.68,8.35 1.31,2.73 0.16,1.28 -13.15,12.07 -3.27,-1.55 -2.02,0.35 -1.38,-1.84 -2.34,0.2 -0.28,-1.05 -2.03,-0.55 -0.08,-3.38 -1.49,-1.36 -3.11,-0.33 -1.24,0.55 -3.17,-1.38 -2.34,-6.09 -1.53,-1.88 z" id="Goliad" fill="#3933E5" style="fill:#3933E5;fill-opacity:1"/>
    <path d="m 743.13,338.03 18.82,1.31 6.66,3.26 0.49,7.32 -3.47,4.19 1.49,3.19 -1.22,4.9 0.54,0.54 0.74,3.35 -0.44,1.62 0.16,2.95 -0.51,1.78 0.65,1.18 -0.19,1.13 -5.19,1.66 -2.04,-1.53 -1.96,-0.87 -2.06,-2.69 -3.98,-1.61 -1.59,-1.5 -0.86,-0.03 -0.94,-2.69 1.32,-3.28 -0.3,-2.56 -0.59,-0.63 -0.18,-3.26 1.09,-1.08 -0.9,-2.12 -0.01,-2.38 0.89,-2.43 -0.49,-4.24 -4.47,-4.46 z" id="San Augustine" fill="#a2f1ba" style="fill:#656565;fill-opacity:1"/>
    <path d="m 279.07,192.62 h 30.98 l 0.06,30.97 -30.94,-0.04 z" id="Lubbock" fill="#0D0596" style="fill:#0D0596;fill-opacity:1"/>
    <path d="m 541.32,592.61 15.82,2.98 1.61,-2.53 1.27,0.92 2.41,-1.29 2.54,1.39 1.59,1.8 2.39,-1.14 1.53,0.97 2.3,-0.26 1.01,1.53 2.76,1.93 8.19,11.95 0.08,0.46 -0.13,0.3 -0.71,0.64 -2.5,4.45 -1.96,-0.03 v -1.75 l -0.06,-0.1 -1.8,-1.77 -2.48,-0.18 -2.27,0.9 -0.83,-1.1 -2.52,0.69 -4.68,0.41 -0.66,0.57 -2.16,-1.25 -1.25,0.74 0.14,1.44 1.56,0.73 -2.82,-0.45 -0.49,-0.74 -2.96,0.23 -2.35,-1.74 -0.74,1.14 -2.37,-1.15 0.22,-0.75 -1.24,-1.67 -4.15,-0.73 -1.71,-1.28 -1.5,0.92 -0.38,-2.1 0.8,-2.24 0.48,-1.69 -1.01,-1.55 -1.4,0.37 -2.49,-0.25 -1.01,-1.11 -1.15,-0.75 -0.25,-3.29 z" id="San Patricio" fill="#0D0596" style="fill:#0D0596;fill-opacity:1"/>
    <path d="m 662.3,352.48 5.53,-1.86 -0.33,-1.04 9.56,-2.05 13.27,-2.58 1.07,1.14 2.93,0.29 1.9,-1.13 1.7,1.05 0.45,2.06 1.1,0.12 1.61,1.23 0.42,1.11 -0.92,1.05 0.65,1.38 2.42,-0.04 0.58,1.03 3.03,1.8 2.88,2.61 -11.54,10.27 -16.42,14.39 -10.79,9.53 -1.26,0.32 -2.65,-4.41 1.18,-1.89 -0.35,-1.19 1.73,-0.36 -1.49,-2.96 -4.05,0.17 -2.54,-0.92 -0.81,-2.94 2.78,-2.1 -1.07,-1.22 -0.23,-1.87 1.17,-1.21 0.03,-3.3 4.07,-4.33 -1.19,-1.02 -0.1,-1.49 -2.41,-4 -0.05,-2.17 z" id="Houston" fill="#0D0596" style="fill:#0D0596;fill-opacity:1"/>
    <path d="m 768.61,342.6 0.88,-0.26 4.12,-3.03 4,1.58 0.98,1.93 2.55,2.18 2.31,-0.24 1.08,2.64 -1.24,1.51 3.56,1.79 -0.63,1.57 2.19,2.01 0.32,3.48 -1.03,2.18 2.83,2.55 1.83,0.61 -0.1,2.02 1.21,0.56 -0.42,1.36 0.55,2.05 -18.86,2.4 -7.7,2.13 -0.65,-1.18 0.51,-1.78 -0.16,-2.95 0.44,-1.62 -0.74,-3.35 -0.54,-0.54 1.22,-4.9 -1.49,-3.19 3.47,-4.19 z" id="Sabine" fill="#0D0596" style="fill:#0D0596;fill-opacity:1"/>
    <path d="m 709.83,326.08 8.31,-0.3 21.04,-1.09 1.24,1.44 0.66,1.67 -0.33,1.93 1.18,1.96 -0.07,2.68 0.65,0.8 0.62,2.86 1.46,1.02 4.47,4.46 0.49,4.24 -0.89,2.43 0.01,2.38 0.9,2.12 -1.09,1.08 0.18,3.26 0.59,0.63 0.3,2.56 -1.32,3.28 0.94,2.69 -1.33,-0.79 -0.69,-1.58 -1.03,-0.41 -1.27,-2.26 -3.52,-1.4 -1.35,-4.12 -2.19,-2.04 -2.11,0.96 -1.18,-2.53 -1.61,0.22 -1.31,-0.8 -2.36,0.23 -1.3,-0.88 -1.47,0.53 -2.6,-0.33 -3.25,-1.55 -2.62,-0.24 -2.71,-2.73 -1.9,-1.25 0.17,-2.25 -1.44,0.59 -0.7,-2.52 -1.06,-1.45 -1.16,-4.2 -0.2,-2.63 -0.87,-1.08 0.4,-1.09 2.06,-0.1 -0.56,-1.2 -2.04,-0.62 1.02,-1.08 0.98,-2.51 z" id="Nacogdoches" fill="#0D0596" style="fill:#0D0596;fill-opacity:1"/>
    <path d="m 721.93,224.28 2.09,1.46 1.93,-0.3 3.94,-2.51 2.9,-1.02 1.49,0.85 0.9,-0.35 3.06,1.96 1.07,-0.72 1.09,0.81 h 3.85 l 2.49,0.51 0.13,-2.53 1.09,-1.48 2.76,-1.23 1.68,1.15 4.61,-0.69 1.22,1.97 1.57,27.67 -36.56,2.08 z" id="Cass" fill="#0D0596" style="fill:#0D0596;fill-opacity:1"/>
    <path d="m 316.18,127.47 22.36,0.13 8.57,0.05 -0.24,30.99 -5.63,-0.02 -25.38,-0.2 z" id="Briscoe" fill="#0D0596" style="fill:#0D0596;fill-opacity:1"/>
    <path d="m 662.49,452.9 2,0.1 3.4,-1.19 1.51,0.18 2.15,-0.81 1.91,-1.97 2.16,-0.25 2.16,-2.42 1.36,0.28 1.9,1.58 0.62,2.22 1.05,0.49 3.08,-1 2.11,2.23 2.61,0.33 3.64,3.28 1.77,-0.37 9.88,-10.06 4.62,12.13 1.94,0.05 0.95,1.29 -0.63,3.78 1.18,2.47 0.32,1.12 1.53,0.84 1.13,1.38 1.52,0.38 -0.55,2.31 0.39,2.86 -1.32,2.3 1.44,2.69 -0.6,0.89 -0.82,-1.67 -3.53,-0.63 1.16,2.23 -1.13,0.92 -0.77,2.33 2.12,2.1 -1.67,2.41 -0.28,1.45 -3.26,-0.44 -2,3.33 -3.7,1.09 -2.33,-3.17 -1.09,-0.77 -2.32,0.25 -0.6,-2.75 -4.4,-0.22 -0.84,0.99 -1.85,-0.11 -2.95,0.7 -11.49,-5.48 -14.01,-8.24 -9.38,-26.24 1.29,1.2 3.23,1.76 0.95,-0.25 2.36,2.67 z" id="Harris" fill="#0D0596" style="fill:#0D0596;fill-opacity:1"/>
    <path d="m 712.27,218.03 1.08,0.53 1.2,2.45 1.52,-0.71 1.33,1.49 1.9,-0.4 0.46,1.25 2.17,1.64 1.31,27.63 -3.11,0.18 -0.93,-1.75 -0.5,-0.62 -2.63,-0.86 -1.03,-2.2 -2.09,-1.58 -0.46,-20.56 z" id="Morris" fill="#0D0596" style="fill:#0D0596;fill-opacity:1"/>
    <path d="m 183.8,407.68 13.27,-15.3 7.7,-9.01 15.23,-17.66 1.25,1.1 3.43,0.51 1.68,1.18 1.67,2.09 2.31,1.42 0.81,1.37 3.56,-1.83 0.84,1.05 1.43,-0.57 0.34,-1.46 3.18,-1.33 3.4,2.81 1.2,1.83 1.3,-0.59 3.87,1.01 2.07,2.19 2.25,1.55 0.89,3.72 -0.34,2.13 1.29,2.21 1.07,0.57 4.27,1.96 1.54,1.73 2.25,-0.26 2.81,0.59 1.2,2.14 2.31,-0.24 0.52,0.76 2.81,0.13 0.93,0.64 1.9,-1.11 2.26,1.45 1.84,-0.28 1.91,2.26 1.88,0.69 0.08,0.8 2.19,0.7 0.55,0.99 -1.05,1.53 1.61,0.98 1.16,2.54 0.79,2.8 -0.49,2.68 1.41,0.86 0.46,3.73 1.9,1.32 0.45,2.01 -14.06,-0.27 -8.59,-0.27 -0.11,4.15 -12.55,-0.3 -0.41,22.32 -13.79,-0.2 -0.33,16.35 -52.66,-44.79 z" id="Pecos" fill="#0D0596" style="fill:#0D0596;fill-opacity:1"/>
    <path d="m 741.9,382.17 19.76,-5.76 5.19,-1.66 0.19,-1.13 7.7,-2.13 3.64,14.78 0.47,15.35 0.17,16.76 0.06,17.93 -13.29,0.83 0.63,-0.91 -0.91,-2.18 0.86,-2.94 1.13,-1.21 -1.05,-1.32 -0.36,-2.15 -1.05,-1.18 2.44,-8.42 -0.95,-1.46 -0.2,-3.44 1.97,-3.14 -0.37,-1.13 -2.1,-1.2 -0.2,-1.05 -2.09,0.41 0.02,-1.31 -0.95,-1.93 0.51,-1.04 -0.93,-2.66 -2.51,-0.93 -0.16,-2.04 -1.08,-1.87 -0.63,-4.47 -2.62,-3.52 0.58,-1.59 -1.28,-1.94 -1.76,0.14 -1.12,-1.1 -1.56,1.13 -1.25,-1.34 -2.15,0.93 -2.04,0.24 -1.31,0.97 z" id="Jasper" fill="#0D0596" style="fill:#0D0596;fill-opacity:1"/>
    <path d="m 464.63,359.17 2.94,-2.02 9.81,-7.13 1.13,-5.5 5.54,-0.97 10.63,-1.81 1.81,2.78 12.05,18.78 0.26,0.42 -17.8,13.09 -1.08,-2.47 -1.09,0.84 -1.71,-1.11 1.61,-1.2 0.25,-1.78 -3.02,-0.14 -0.22,-1.89 0.61,-0.91 -1.03,-1.16 -1.76,1.72 -1.21,0.51 -0.14,-2.91 0.44,-1.93 -2.66,0.02 -1.32,2.31 -0.81,-0.86 0.14,-1.66 -2.46,0.48 -2.49,-0.59 -1.14,-2.18 -1.78,0.62 -1.9,-0.05 -3.79,-2.04 z" id="Mills" fill="#0D0596" style="fill:#0D0596;fill-opacity:1"/>
    <path d="m 308.34,34.21 31.13,0.3 -0.23,30.65 -31.22,-0.2 z" id="Hutchinson" fill="#0D0596" style="fill:#0D0596;fill-opacity:1"/>
    <path d="m 613.95,411.71 6.58,-3.7 1.97,-3.49 2.03,-5.13 2.91,-4.15 5.76,-3.96 0.88,1.52 1.61,0.95 -0.63,1.89 2.26,3.62 0.72,2.55 -0.86,2.01 1.35,1.77 -0.41,1.48 0.42,1.88 -0.79,0.94 0.52,1.38 0.37,3.19 -0.81,1.67 -0.18,2.35 1.46,1.23 0.09,2.02 0.85,0.94 1.1,2.63 0.84,3.42 0.93,1.63 -0.73,2.23 -1.58,0.25 0.25,3.36 -0.67,0.52 -0.36,-3.4 -1.29,-1.11 -3.4,1.9 -3.1,0.47 -0.87,-0.99 -0.47,-0.88 1.37,-2.53 -0.55,-1.21 -1.98,-0.98 -1.16,-2.48 -1.1,-1.36 -0.19,-1.96 -1.76,0.72 -1.96,-0.89 -0.37,-2.26 -0.87,0.23 -1.99,-2.19 -0.95,0.26 -1.46,-1.47 -2.47,-0.11 -3.14,-0.7 0.93,-1.77 -0.13,-1.37 z" id="Brazos" fill="#0D0596" style="fill:#0D0596;fill-opacity:1"/>
    <path d="m 458.94,397.78 -0.22,-21.94 -0.09,-14.95 2.13,-0.99 0.96,-1.13 1.09,1.06 1.82,-0.66 -0.19,1.26 3.79,2.04 1.9,0.05 1.78,-0.62 1.14,2.18 2.49,0.59 2.46,-0.48 -0.14,1.66 0.81,0.86 1.32,-2.31 2.66,-0.02 -0.44,1.93 0.14,2.91 1.21,-0.51 1.76,-1.72 1.03,1.16 -0.61,0.91 0.22,1.89 3.02,0.14 -0.25,1.78 -1.61,1.2 1.71,1.11 1.09,-0.84 1.08,2.47 -0.39,1.93 1.58,0.59 1,1.56 0.09,2.27 -1.29,1.16 1.88,2.22 1.02,-1.74 1.33,-0.1 1.46,2.7 -1.68,0.91 0.51,0.98 2.23,1.64 -1.17,1.57 1.09,1.65 -0.28,2.31 2.01,0.66 -0.46,1.27 -1.43,0.22 -11.01,0.15 -7.62,0.22 -13.11,0.1 -7.82,0.05 z" id="San Saba" fill="#0D0596" style="fill:#0D0596;fill-opacity:1"/>
    <path d="m 225.49,63.59 24.88,0.4 26.24,0.28 v 0.53 l -0.79,31.11 -26.77,-0.79 -7.3,0.01 -17.07,-0.26 z" id="Oldham" fill="#0D0596" style="fill:#0D0596;fill-opacity:1"/>
    <path d="m 457.46,708.09 10.04,-7.46 3.54,-7.92 19.87,-0.16 14.05,-0.18 6.51,-0.09 -6.64,15.62 -3.51,7.7 -6.24,14.35 -1.67,0.37 -2.64,1.23 -1.6,-0.66 -0.32,-1.33 -2.23,-0.47 -0.01,-1.13 -2.5,-3.07 -2.13,-0.02 -0.57,-2.02 -1.88,-0.61 -0.89,0.73 -1.49,-0.43 -2.04,0.88 -0.43,-1.32 -3.4,-0.36 -1.25,-1.66 -2.32,0.64 -1.66,-1.49 -1.58,1.18 -1.27,0.08 -1.87,-2.1 1.19,-3.62 -2.36,-3.4 -2.5,-0.75 z" id="Starr" fill="#3933E5" style="fill:#3933E5;fill-opacity:1"/>
    <path d="m 257.5,386.67 5.35,0.17 32.06,0.95 30.62,0.35 19.09,-0.08 -0.05,26.71 -0.17,29.68 -25.54,-0.21 -23.59,-0.26 1.35,-2.74 2.26,-1.32 1.91,0.49 0.7,-1.29 -2.26,-1.54 -0.32,-1.63 -1.68,-0.47 -0.74,-0.94 1.34,-2.39 1.88,-0.86 -0.16,-1.69 1.03,-0.73 0.14,-1.58 1.66,-1.88 -1.01,-2.69 0.33,-2 -0.9,-1.6 -2.18,-0.98 -3.63,-0.07 -0.45,-2.01 -1.9,-1.32 -0.46,-3.73 -1.41,-0.86 0.49,-2.68 -0.79,-2.8 -1.16,-2.54 -1.61,-0.98 1.05,-1.53 -0.55,-0.99 -2.19,-0.7 -0.08,-0.8 -1.88,-0.69 -1.91,-2.26 -1.84,0.28 -2.26,-1.45 -1.9,1.11 -0.93,-0.64 -2.81,-0.13 -0.52,-0.76 -2.31,0.24 -1.2,-2.14 -2.81,-0.59 -2.25,0.26 -1.54,-1.73 z" id="Crockett" fill="#0D0596" style="fill:#0D0596;fill-opacity:1"/>
    <path d="m 638.17,258.63 8.53,-0.24 0.77,1.48 4.87,3.12 1.68,0.2 1.25,-0.78 1.74,0.22 0.72,0.95 3.84,1.3 2,1.75 1.42,-0.69 2.53,2.27 0.64,14.69 2.58,1.99 0.88,1.19 2.33,1.59 2,2.79 1.32,0.9 -9.3,0.4 -28.44,1 -0.39,-10.6 z" id="Van Zandt" fill="#0D0596" style="fill:#0D0596;fill-opacity:1"/>
    <path d="m 774.74,371.49 18.86,-2.4 0.76,0.7 2.32,-1.63 0.15,2.18 0.73,2.89 -1.11,1.29 0.5,1.28 1.21,0.23 0.84,2.67 -0.95,2.05 -1.64,-0.24 -0.71,0.98 0.65,1.65 2.37,1.13 0.2,2.38 -1.63,0.89 0.63,1.1 -1.47,1.01 1.51,3.56 -1.19,2.33 -0.9,2.74 -0.92,1.18 -0.51,3.84 -1,1.57 -1.02,0.26 -1.59,2.19 0.47,3.29 -2.12,0.6 -1,4.04 1.71,1.32 -0.46,2.12 1.17,1.64 0.1,1.45 -1.22,0.83 -1.48,2.24 -0.83,3.77 1.34,2.77 2.48,0.86 0.16,3.26 -12.07,0.8 -0.06,-17.93 -0.17,-16.76 -0.47,-15.35 z" id="Newton" fill="#0D0596" style="fill:#0D0596;fill-opacity:1"/>
    <path d="m 223.08,156.79 25.3,0.55 -0.73,34.68 -25.61,-0.54 0.53,-12.72 z" id="Bailey" fill="#3933E5" style="fill:#3933E5;fill-opacity:1"/>
    <path d="m 310.11,223.59 11.26,-0.01 19.62,0.11 -0.19,30.33 -8.07,0.41 -22.99,-0.03 z" id="Garza" fill="#0D0596" style="fill:#0D0596;fill-opacity:1"/>
    <path d="m 301.72,254.25 8.02,0.15 22.99,0.03 -0.3,30.96 -0.01,0.25 -30.92,-0.38 z" id="Borden" fill="#0D0596" style="fill:#0D0596;fill-opacity:1"/>
    <path d="m 184.07,344.83 17.2,0.51 19.67,0.5 12.41,0.26 1.92,0.05 -0.56,25.4 -3.56,1.83 -0.81,-1.37 -2.31,-1.42 -1.67,-2.09 -1.68,-1.18 -3.43,-0.51 -1.25,-1.1 -2.72,-1 -0.74,1.35 -4.56,-0.13 -2.34,-0.41 -4.01,-1.71 -1.11,-2.49 -0.85,0.82 -1.35,-0.43 -1.5,0.54 -1.29,-0.77 -1.95,0.41 -0.77,-1.04 -3.66,0.3 -1.73,-1.57 0.12,-2.13 -1.27,-2.64 0.52,-2.43 -1.05,-2.22 0.58,-0.81 -0.36,-2.51 -2.07,-1.37 -1.56,0.81 z" id="Ward" fill="#0D0596" style="fill:#0D0596;fill-opacity:1"/>
    <path d="m 646.21,488.23 3.96,-0.24 0.34,-3.04 -0.84,-2.08 0.93,-0.99 -1.26,-2.74 3.82,-0.19 1.21,-0.92 7.59,-3.7 14.01,8.24 11.49,5.48 -1.94,10.11 -5.46,0.3 -0.29,0.93 0.61,2.12 -1.5,0.87 -0.98,4.04 -1.01,-0.07 -1.26,1.45 -0.14,1.2 -2.6,-0.38 -5.05,-1.56 -1.85,2.08 -0.9,-0.79 -2.96,3.34 -2,-0.22 -1.21,-2.26 0.27,-0.84 -3.6,-1.59 0.6,-1.61 -1.84,-1.65 -0.46,-2.08 -1.22,-1.54 -1,0.35 -1.79,-1.08 -1.55,-3.08 0.72,-1.44 -0.53,-1.79 0.78,-0.85 -1.21,-1.51 -0.21,-1.61 z" id="Fort Bend" fill="#0D0596" style="fill:#0D0596;fill-opacity:1"/>
    <path d="m 631.32,574.8 2.85,-18.02 -0.14,-2.32 0.16,-20.44 16.49,-10.79 4.46,-3.04 5.44,-6.1 1.9,1.7 -0.79,0.84 1.24,1.16 -0.68,1.76 0.7,0.8 v 2.92 l 2.27,0.52 0.93,1.33 1.7,0.7 -0.72,1.15 0.08,3.38 0.92,2.07 4.1,-0.33 2.8,1.17 0.98,3.35 4.03,2.96 0.82,2.09 3.78,0.14 -7.65,4.89 -8.48,5.65 -7.24,4.24 -11.88,5.89 -7.5,4.33 -3.98,2.7 -3.01,2.81 -0.62,-0.07 z" id="Matagorda" fill="#3933E5" style="fill:#3933E5;fill-opacity:1"/>
    <path d="m 478.17,517.51 24.9,9.28 8.74,10.18 5.06,6.05 5.93,6.66 -14.58,12.65 -0.05,-2.53 -29.17,0.53 v -0.01 l -0.68,-31.44 z" id="Atascosa" fill="#0D0596" style="fill:#0D0596;fill-opacity:1"/>
    <path d="m 662.45,248.98 21.32,-1.08 8.13,-0.32 1.07,-3.72 0.37,7.86 1.03,23.6 -2.07,1.77 -1.24,-1.51 -1.76,0.65 -1,-1.02 -1.21,0.17 -3.57,-1.99 -1.79,-0.09 -1.18,0.63 -2.3,-0.65 -2.96,0.37 -2.55,-0.93 -0.88,-1.62 -4.34,-2.89 -2.53,-2.27 z" id="Wood" fill="#0D0596" style="fill:#0D0596;fill-opacity:1"/>
    <path d="m 420.19,352.98 0.21,-22.87 0.06,-13 4.99,0.03 7.92,0.05 18.41,-0.12 -0.23,22.79 0.25,20.65 -2.27,-1.08 -3.78,3.6 -0.52,1.52 -1.62,-0.38 -0.53,-1.86 -1.25,0.38 -2.36,-0.76 -2.15,-1.84 -0.33,1.74 -0.98,1.29 -2.58,-0.39 -1.51,-1.57 -0.44,-1.62 -2.19,-0.71 -1.78,0.13 -1.47,1.74 -2.71,-3.06 0.84,-0.61 -0.91,-2.18 -1.57,-1.34 z" id="Coleman" fill="#0D0596" style="fill:#0D0596;fill-opacity:1"/>
    <path d="m 490.05,428.67 11.06,-0.34 3.74,1.07 13.94,3.99 -2.82,5.02 -7.26,22.73 -7.06,7.25 -10.97,-14.11 -0.13,-7.62 z" id="Blanco" fill="#3933E5" style="fill:#3933E5;fill-opacity:1"/>
    <path d="m 659.28,414.66 14.55,8.01 14.55,-0.63 0.18,0.32 2.05,4.96 1.41,1.91 2.98,1.43 1.48,0.2 2.12,1.87 -1.24,2.36 3.59,-1.97 4.85,12.4 -9.88,10.06 -1.77,0.37 -3.64,-3.28 -2.61,-0.33 -2.11,-2.23 -3.08,1 -1.05,-0.49 -0.62,-2.22 -1.9,-1.58 -1.36,-0.28 -2.16,2.42 -2.16,0.25 -1.91,1.97 -2.15,0.81 -1.51,-0.18 -3.4,1.19 -2,-0.1 -0.51,-11.02 -0.27,-6.54 -1.27,-11.49 z" id="Montgomery" fill="#0D0596" style="fill:#0D0596;fill-opacity:1"/>
    <path d="m 222.04,191.48 25.61,0.54 0.59,31.05 -27.51,-0.61 z" id="Cochran" fill="#0D0596" style="fill:#0D0596;fill-opacity:1"/>
    <path d="m 682.19,383.31 16.42,-14.39 11.54,-10.27 0.37,3.16 2.78,0.25 1.73,3.44 -0.75,2.13 2.11,1.72 -0.04,1.67 1.1,2.08 0.55,2.25 -5.51,7.7 -15.22,16.17 -1.94,-1.09 -0.82,-1.79 0.69,-1.46 -1.39,-1.34 -3.67,0.8 0.02,1.75 -0.79,1 -3.52,0.58 -0.52,-1.85 -1.43,-2.64 -1.31,-1.32 z" id="Trinity" fill="#0D0596" style="fill:#0D0596;fill-opacity:1"/>
    <path d="m 735.13,315.68 13.27,-0.88 16.68,-1.2 2.2,2.73 0.54,1.27 1.28,0.72 1.46,-0.17 2,1.12 -0.22,1.03 1.25,1.22 0.63,2.82 2.24,1.39 1.06,1.73 -0.65,1.93 1.46,1.52 -0.14,1.23 1.39,0.39 -1.79,2.61 0.78,2.42 -0.11,1.12 -1.17,1.31 0.32,0.9 -4,-1.58 -4.12,3.03 -0.88,0.26 -6.66,-3.26 -18.82,-1.31 -0.62,-2.86 -0.65,-0.8 0.07,-2.68 -1.18,-1.96 0.33,-1.93 -0.66,-1.67 -1.24,-1.44 -0.67,-1.9 -1.46,-2.22 -1.74,-1.51 z" id="Shelby" fill="#0D0596" style="fill:#0D0596;fill-opacity:1"/>
    <path d="m 603.61,595.44 -1.35,3.77 -4.54,5.06 -2.08,2.6 -3.84,5.53 -1.23,2.89 -0.59,-0.53 1.26,-4.69 1.74,-1.18 1.24,-2.49 -0.06,-1.5 0.97,-2.39 2.07,-2.8 0.44,-2.31 2.34,-2.06 0.81,-1.24 1.96,1.69 z m -14.18,19.03 0.39,-0.99 -1.02,-2.5 1.17,-0.13 0.3,1.68 z m 16.19,-33.72 -1.13,2.09 0.71,0.99 -0.54,3.95 -2.19,2.97 -2.65,2.35 -2.64,1.79 -1.83,0.11 0.94,-1.87 1.23,-3.61 -1.8,-3.18 -1.07,1.8 1.47,1.62 -1.46,1.92 -0.74,3.23 -2.63,-1.63 0.29,-3.75 -2.89,-0.36 -2.46,-1.24 -1.41,-3.26 z m -29.07,18.16 1.33,0.97 1.18,-0.95 3.78,1.75 1.49,1.48 2.37,-3.7 2.83,-1.13 0.29,-1.7 1.51,0.19 -0.67,2.68 0.82,3.08 -1.16,0.32 -1.08,2.3 -0.34,2.21 -1.19,-0.36 -2.8,5.03 -0.17,-0.22 z" id="Aransas" fill="#3933E5" style="fill:#3933E5;fill-opacity:1"/>
    <path d="m 362.19,529.94 16.68,-0.06 9.33,0.03 8.67,-0.09 -0.12,31.1 0.1,31.98 -6.2,0.08 -0.72,-2.73 -2.15,-0.36 -2.3,-3.12 0.36,-2.32 -1.61,-2.05 -2.22,-4.03 0.84,-1.96 -0.34,-1.37 -1.63,-1.8 2.05,-1.81 -3.26,-0.97 -1.54,-2.69 0.7,-2.49 -2.94,-1.59 0.1,-2.22 -1.07,-0.06 -2.21,-1.3 -0.74,-2.21 0.15,-3.54 -1.79,-2.63 0.04,-2 -0.72,-1.42 -1.71,-0.22 0.11,-1.39 -2.53,-3.77 -1.59,-1.06 -0.71,-1.82 0.3,-3.16 -1.07,-4.37 z" id="Maverick" fill="#3933E5" style="fill:#3933E5;fill-opacity:1"/>
    <path d="m 588.8,610.98 1.02,2.5 -0.39,0.99 -0.06,0.49 -3.9,0.6 1.52,-3.26 z m -4.06,-0.12 0.17,0.22 -0.09,0.24 z m -4.79,23.44 -1.25,-0.43 -1.63,0.54 1.66,-4.12 1.23,-0.04 1.45,-1.63 -0.04,-2.03 0.78,-0.83 2.28,-5.52 1.27,-0.52 0.29,-2.2 -0.54,-1.26 4.44,-1.12 0.1,1.19 -3.19,4.51 -2.76,4.78 -2.7,5.38 z m -37.13,-28.85 -0.8,2.24 0.38,2.1 1.5,-0.92 1.71,1.28 4.15,0.73 1.24,1.67 -0.22,0.75 2.37,1.15 0.74,-1.14 2.35,1.74 2.96,-0.23 0.49,0.74 2.82,0.45 1.78,1.16 4.85,-1.31 -0.38,4.07 1.21,2.35 2.04,1.75 4.04,1.27 1.56,0.87 -0.7,1.19 -1.87,4.98 0.32,0.93 -1.84,2.3 -32.55,0.97 -2.25,-2.01 -1.14,-2.35 -1.9,-0.09 -1.36,-0.89 0.32,-10.01 -0.2,-7.71 z" id="Nueces" fill="#0D0596" style="fill:#0D0596;fill-opacity:1"/>
    <path d="m 644.26,444.02 0.25,-0.26 10.17,-1 7.3,-0.88 0.51,11.02 -2.08,0.57 -2.36,-2.67 -0.95,0.25 -3.23,-1.76 -1.29,-1.2 9.38,26.24 -7.59,3.7 -1.21,0.92 -3.82,0.19 0.12,-1.9 -1.35,-3.4 -3.31,-0.33 -1.29,-2.06 1.52,-2.71 -1.94,-1.5 0.76,-1.2 -1.16,-1.26 2.08,-3.23 -0.6,-1.27 1.21,-0.67 -2.13,-3.12 -1.84,-1.35 -0.31,-1.02 -2.66,-3.45 2.16,-3.1 -0.35,-2.08 0.83,-0.88 z" id="Waller" fill="#0D0596" style="fill:#0D0596;fill-opacity:1"/>
    <path d="m 765.79,437.14 13.29,-0.83 12.07,-0.8 -0.7,2.54 1.64,3.97 -0.22,2.77 -1.23,1.4 0.56,1.74 -1.25,3.29 -1.84,2.1 -0.93,0.44 -1.14,2.62 -0.4,2.43 -2.1,4.09 0.7,-4.63 -0.42,-1.77 -1.1,-1.55 -4.43,-0.71 -3.29,-1.22 -1.03,-1.24 -2.05,0.2 -0.22,-2.75 -3.8,-0.98 1.06,-2.4 -2.54,-2.11 -0.2,-0.85 0.22,-1.96 0.92,-1.13 -1.4,-1.05 z" id="Orange" fill="#0D0596" style="fill:#0D0596;fill-opacity:1"/>
    <path d="m 649.6,217.58 -0.09,-3.71 2.25,-0.25 3.02,-2.31 3.78,0.42 1.99,0.91 1.59,-1.02 1.38,-0.13 3.31,0.57 2.41,2.11 2.17,-0.64 1.58,1.34 0.9,-0.11 1.62,1.28 3.05,1.53 3.88,0.66 0.13,0.18 -0.11,0.07 -1.61,1.19 -1.21,-0.32 -3.97,-0.05 -3.69,1.58 -2.39,0.17 -3.31,-0.57 -1.7,0.72 -1.92,2.76 -1.72,0.79 -3.15,-0.06 -2.62,2.1 -0.71,1.54 -4.5,2.76 z" id="Delta" fill="#0D0596" style="fill:#0D0596;fill-opacity:1"/>
    <path d="m 295.84,316.31 4.9,0.02 26.03,0.29 -0.43,30.97 -30.88,-0.36 z" id="Glasscock" fill="#0D0596" style="fill:#0D0596;fill-opacity:1"/>
    <path d="m 340.99,223.69 27.73,0.02 3.34,0.05 -0.01,12.75 -0.15,18.15 -8.18,-0.06 -20.02,-0.2 -2.9,-0.38 z" id="Kent" fill="#0D0596" style="fill:#0D0596;fill-opacity:1"/>
    <path d="m 254.3,126.58 9.06,0.24 11.87,0.1 10,0.11 -0.43,30.95 -5.46,-0.09 -25.68,-0.45 z" id="Castro" fill="#0D0596" style="fill:#0D0596;fill-opacity:1"/>
    <path d="m 451.78,317.07 4.66,-0.08 11.74,-0.02 15.87,26.58 -5.54,0.97 -1.13,5.5 -9.81,7.13 -2.94,2.02 -1.82,0.66 -1.09,-1.06 -0.96,1.13 -2.13,0.99 -1.56,-0.51 -2.8,0.06 -1.12,0.93 -1.35,-0.86 -0.25,-20.65 z" id="Brown" fill="#0D0596" style="fill:#0D0596;fill-opacity:1"/>
    <path d="m 224.68,94.87 17.07,0.26 7.3,-0.01 26.77,0.79 -0.59,31.01 -11.87,-0.1 -9.06,-0.24 -30.39,-0.7 z" id="Deaf Smith" fill="#0D0596" style="fill:#0D0596;fill-opacity:1"/>
    <path d="m 388.96,317.19 5.03,-0.02 17.49,0.03 8.98,-0.09 -0.06,13 -0.21,22.87 -13,-0.03 -10.67,-0.13 -7.03,-0.06 -0.46,-0.41 -0.08,-7.51 z" id="Runnels" fill="#0D0596" style="fill:#0D0596;fill-opacity:1"/>
    <path d="m 426.22,254.95 8.43,-0.06 22.47,-0.21 0.34,31.4 -1.09,0.01 -29.95,0.28 z" id="Shackelford" fill="#f1e4da" style="fill:#656565;fill-opacity:1"/>
    <path d="m 491,376.81 17.8,-13.09 -0.26,-0.42 5.47,-3.46 17.21,27.64 -0.23,2.44 -13.87,0.48 -18.38,0.53 -2.23,-1.64 -0.51,-0.98 1.68,-0.91 -1.46,-2.7 -1.33,0.1 -1.02,1.74 -1.88,-2.22 1.29,-1.16 -0.09,-2.27 -1,-1.56 -1.58,-0.59 z" id="Lampasas" fill="#0D0596" style="fill:#0D0596;fill-opacity:1"/>
    <path d="m 219.5,252.93 28.11,0.65 23.14,0.43 -0.01,9.96 -0.16,20.98 -0.5,-0.01 -15.77,-0.26 -31.46,-0.69 -4.11,-0.04 z" id="Gaines" fill="#0D0596" style="fill:#0D0596;fill-opacity:1"/>
    <path d="m 434.34,223.49 30.9,-0.2 0.57,31.29 -8.69,0.1 -22.47,0.21 z" id="Throckmorton" fill="#0D0596" style="fill:#0D0596;fill-opacity:1"/>
    <path d="m 555.53,308.52 -0.01,-0.59 18.89,-5.39 4.47,-1.2 9.23,14.88 2.64,-1.64 11.29,18.05 -12.68,7.92 -6.69,-10.74 -14.31,8.75 -2.03,-1.08 -1.03,-1.88 2.93,-3.28 -1.67,-1.01 -1.4,0.53 -2.19,-1.61 -2.25,-3.13 -0.86,0.02 -1.63,-1.63 3.48,-2.88 -2.65,-2.43 -1.18,-0.43 -1.98,0.36 -0.68,-0.52 -0.45,-2.98 1.25,-1.95 -1.6,-2.9 2.27,-2.51 z" id="Hill" fill="#0D0596" style="fill:#0D0596;fill-opacity:1"/>
    <path d="m 339.72,2.84 31.05,0.13 -0.1,31.58 -31.2,-0.21 z" id="Ochiltree" fill="#0D0596" style="fill:#0D0596;fill-opacity:1"/>
    <path d="m 394.35,254.87 9.31,-0.03 22.56,0.11 0.2,31.42 h -1.05 l -0.01,-0.43 -14.35,0.06 -16.74,-0.08 z" id="Jones" fill="#0D0596" style="fill:#0D0596;fill-opacity:1"/>
    <path d="m 601.21,450.12 3.03,-2.61 0.06,-2.28 0.58,-1.14 2.84,-0.97 2.64,-2.97 4.11,-1.13 0.66,-0.85 4.07,-0.28 4.7,-2.18 2.52,-0.31 1.09,-1.23 1.15,0.29 1.63,-1.21 0.88,0.33 0.87,0.99 3.1,-0.47 3.4,-1.9 1.29,1.11 0.36,3.4 3.43,2.54 1.01,0.32 -1.15,3.94 0.78,0.51 -3.18,0.59 -0.83,0.88 0.35,2.08 -2.16,3.1 2.66,3.45 0.31,1.02 -0.99,1.26 -4.11,-1.46 -1.9,0.06 -1.68,-1.4 -14.3,2.72 -4.13,0.18 -2.18,1.52 -0.84,-2.2 -0.03,-2.17 -1.25,-1.65 0.32,-1.09 -2.24,-0.34 -3.2,0.36 -1.92,0.68 z" id="Washington" fill="#0D0596" style="fill:#0D0596;fill-opacity:1"/>
    <path d="m 549.96,250.36 8.72,-0.05 21.99,-0.47 0.47,31.32 -2.91,0.04 -27.88,0.32 -0.3,-18.92 z" id="Tarrant" fill="#0D0596" style="fill:#0D0596;fill-opacity:1"/>
    <path d="m 515.97,438.41 29.11,23 -3.14,2.58 -1.89,3.09 -3.46,2.15 -2.75,2.41 -0.22,1.83 1.44,-0.1 -4.14,3.73 -3.37,3.93 -2.07,-6.77 -16.77,-13.12 z" id="Hays" fill="#0D0596" style="fill:#0D0596;fill-opacity:1"/>
    <path d="m 667.52,268.21 4.34,2.89 0.88,1.62 2.55,0.93 2.96,-0.37 2.3,0.65 1.18,-0.63 1.79,0.09 3.57,1.99 1.21,-0.17 1,1.02 1.76,-0.65 1.24,1.51 2.07,-1.77 1.15,1.51 3.05,-0.49 1.16,1.03 2.47,-0.07 1.04,1.39 1.24,-1.51 0.66,11.79 0.8,16.52 -21.55,1.17 -7.08,0.31 -1.25,-1.11 0.88,-3.57 -1.5,-1.62 1.06,-1.55 0.99,-3.86 -0.64,-2.03 0.42,-1.87 -1.32,-0.9 -2,-2.79 -2.33,-1.59 -0.88,-1.19 -2.58,-1.99 z" id="Smith" fill="#0D0596" style="fill:#0D0596;fill-opacity:1"/>
    <path d="m 565.28,432.78 2.18,1.13 8.47,4.41 7.37,5.33 3.97,14.64 -4.94,5.55 -12.53,13.76 -11.73,-10.73 -9.4,-8.71 9.42,-10.31 z" id="Bastrop" fill="#0D0596" style="fill:#0D0596;fill-opacity:1"/>
    <path d="m 425.37,286.37 h 1.05 l 29.95,-0.28 0.01,18.77 0.06,12.13 -4.66,0.08 -18.41,0.12 -7.92,-0.05 z" id="Callahan" fill="#0D0596" style="fill:#0D0596;fill-opacity:1"/>
    <path d="m 234.02,315.3 5.57,0.06 25.37,0.47 -0.56,30.93 -1.86,-0.04 -27.27,-0.57 -1.92,-0.05 0.37,-15.03 z" id="Ector" fill="#0D0596" style="fill:#0D0596;fill-opacity:1"/>
    <path d="m 602.04,332.63 13.52,0.87 16.76,26.59 -4.99,2.9 0.11,1.27 -16.58,10.26 -13.13,-20.97 -8.37,-13 z" id="Limestone" fill="#0D0596" style="fill:#0D0596;fill-opacity:1"/>
    <path d="m 434.93,398.04 24.01,-0.26 v 1.35 l 7.82,-0.05 0.4,30.01 -20.88,0.13 -11.09,0.11 -0.08,-14.98 z" id="Mason" fill="#3933E5" style="fill:#3933E5;fill-opacity:1"/>
    <path d="m 497.98,658.24 18.47,-0.14 11.08,-0.11 4.57,-0.06 0.09,3.64 0.67,30.45 -21.39,0.26 -6.51,0.09 -0.03,-19.33 -3.09,0.1 -0.15,-6.21 -1.63,0.03 -0.11,-6.61 -0.85,-0.25 z" id="Brooks" fill="#3933E5" style="fill:#3933E5;fill-opacity:1"/>
    <path d="m 248.24,223.07 5.79,0.12 25.14,0.36 -0.4,27.66 -0.1,2.87 -7.92,-0.07 -23.14,-0.43 0.65,-29.56 z" id="Terry" fill="#0D0596" style="fill:#0D0596;fill-opacity:1"/>
    <path d="m 497.02,222.91 -0.13,-5.01 14.82,-0.24 11.52,-0.29 0.05,2.37 3.62,-0.09 0.26,13.99 0.2,16.74 -8.05,0.03 -22.17,0.09 -0.02,-20.61 z" id="Jack" fill="#0D0596" style="fill:#0D0596;fill-opacity:1"/>
    <path d="m 371.05,34.56 10.03,0.07 21.23,-0.03 0.09,31.11 -31.4,0.01 -0.05,-9.32 z" id="Hemphill" fill="#0D0596" style="fill:#0D0596;fill-opacity:1"/>
    <path d="m 371,65.72 31.4,-0.01 0.09,31.09 -31.48,-0.01 0.06,-9.23 z" id="Wheeler" fill="#0D0596" style="fill:#0D0596;fill-opacity:1"/>
    <path d="m 490.53,303.62 4.57,-2.74 -0.28,-15.19 24.46,-0.36 4.27,10.52 3.55,9.07 5.1,10.27 -8.39,5.11 -12.14,7.37 -2.67,-4.39 -4.57,2.84 z" id="Erath" fill="#0D0596" style="fill:#0D0596;fill-opacity:1"/>
    <path d="m 468.18,316.97 15.83,-9.2 6.52,-4.15 13.9,22.5 4.57,-2.84 2.67,4.39 3.24,5.32 -18.42,11.53 -1.81,-2.78 -10.63,1.81 z" id="Comanche" fill="#0D0596" style="fill:#0D0596;fill-opacity:1"/>
    <path d="m 488.28,254.45 h 8.89 l -0.03,-3.95 22.17,-0.09 0.04,18.05 -0.04,13.52 -0.03,3.35 -24.46,0.36 -6.09,-0.05 z" id="Palo Pinto" fill="#0D0596" style="fill:#0D0596;fill-opacity:1"/>
    <path d="m 347.11,127.65 23.74,0.13 7.33,0.02 -0.01,13.49 -0.12,17.39 -5.88,-0.05 -25.3,0.01 z" id="Hall" fill="#0D0596" style="fill:#0D0596;fill-opacity:1"/>
    <path d="m 546.36,281.61 3.99,-0.09 27.88,-0.32 0.65,20.14 -4.47,1.2 -18.89,5.39 0.01,0.59 -2.15,0.92 0.18,1.8 -2.76,-0.9 -0.97,-2.04 -1.69,-1.75 -1.05,0.04 -0.23,-8.17 z" id="Johnson" fill="#0D0596" style="fill:#0D0596;fill-opacity:1"/>
    <path d="m 503.07,526.79 7.31,-10.29 9.07,-13.15 0.19,-0.1 0.81,4.48 0.6,0.89 1.75,-1.02 15.19,-0.12 -1.11,1.72 8.32,9.12 -21.2,18.53 -7.13,6.17 -5.06,-6.05 z" id="Wilson" fill="#0D0596" style="fill:#0D0596;fill-opacity:1"/>
    <path d="m 496.31,191.66 -0.3,-17.54 1.46,-1.57 0.16,-1.91 1.8,-1.87 2.29,0.4 1.52,1.14 2.59,0.31 1.5,-0.35 1.85,1.19 1.83,0.15 1.87,-2.23 1.6,-0.68 1.16,2.27 -1.65,2.7 0.32,1.57 1.85,1.42 -0.84,1.29 0.96,1.51 3.76,0.53 2.81,-0.89 1.55,1.18 -0.8,2.61 0.25,2.66 -1.19,1.78 0.57,30.04 -11.52,0.29 -14.82,0.24 -0.3,-10.81 z" id="Clay" fill="#0D0596" style="fill:#0D0596;fill-opacity:1"/>
    <path d="m 569.22,371.61 17.86,-11.17 10.65,-6.89 13.13,20.97 -8.11,5.12 -5.87,3.54 -4.85,2.73 -9.52,6.17 z" id="Falls" fill="#0D0596" style="fill:#0D0596;fill-opacity:1"/>
    <path d="m 704.48,277.18 0.7,0.05 9.14,-4.35 3.46,-5.09 3.41,0.39 0.82,16.34 1.81,-0.1 1.93,1.59 3.74,0.03 -1.17,2.54 -2.3,-0.62 -20.88,1.01 z" id="Gregg" fill="#0D0596" style="fill:#0D0596;fill-opacity:1"/>
    <path d="m 568.36,338.56 14.31,-8.75 6.69,10.74 8.37,13 -10.65,6.89 -17.86,11.17 -3.91,2.63 -4.72,-5.27 -11.84,-18.7 1.52,-0.83 z" id="McLennan" fill="#0D0596" style="fill:#0D0596;fill-opacity:1"/>
    <path d="m 218.74,283.95 4.11,0.04 31.46,0.69 15.77,0.26 -0.54,30.98 -4.58,-0.09 -25.37,-0.47 -5.57,-0.06 -0.14,-0.1 -15.88,-0.36 z" id="Andrews" fill="#0D0596" style="fill:#0D0596;fill-opacity:1"/>
    <path d="m 354.3,518.75 3.07,-0.93 0.42,-2.52 -0.46,-2.51 2.14,-0.86 0.4,-4.51 0.43,-1.29 v -14.49 l 7.71,0.05 28.74,0.02 0.12,38.11 -8.67,0.09 -9.33,-0.03 -16.68,0.06 -1.54,-2.2 -2.82,-1.7 -2.37,-2.44 0.62,-0.89 z" id="Kinney" fill="#584CDE" style="fill:#584CDE;fill-opacity:1"/>
    <path d="m 270.75,254.01 7.92,0.07 23.05,0.17 -0.22,31.01 -30.92,-0.31 0.16,-20.98 z" id="Dawson" fill="#0D0596" style="fill:#0D0596;fill-opacity:1"/>
    <path d="m 360.43,444.49 35.95,-0.12 22.32,-0.11 -0.14,15.37 -9.9,0.08 -3.06,-0.61 -0.32,4.1 -1.03,-0.08 -0.75,9.15 -1.32,1 0.26,0.94 -0.73,2.03 1.13,3.31 -1.41,1.1 0.86,2.48 -0.25,1.47 -1.19,2.01 1.78,1.33 -0.82,0.91 1.43,2.2 -0.42,0.62 -6.07,0.04 -28.74,-0.02 -7.71,-0.05 z" id="Edwards" fill="#3933E5" style="fill:#3933E5;fill-opacity:1"/>
    <path d="m 567.96,409.08 3.19,-9.82 11.36,-7.18 9.52,-6.17 4.85,-2.73 1.35,1.73 -0.07,1.57 1.48,-0.25 1.08,4.11 1.63,0.51 -1.54,1.66 1.03,1.99 -0.03,1.17 1.47,1.76 2.95,-0.4 -0.55,2.86 1.62,2.23 1.8,1.06 0.34,1.5 1.6,2.81 -0.51,1.84 -20.6,12.98 -11.55,7.43 -7.6,-19.53 z" id="Milam" fill="#0D0596" style="fill:#0D0596;fill-opacity:1"/>
    <path d="m 396.52,352.82 10.67,0.13 13,0.03 1.5,0.53 1.57,1.34 0.91,2.18 -0.84,0.61 2.71,3.06 1.47,-1.74 0.01,7.03 0.17,19.24 -0.07,2.45 -20.82,0.1 -10.45,-0.02 z" id="Concho" fill="#0D0596" style="fill:#0D0596;fill-opacity:1"/>
    <path d="m 526.9,219.65 25.68,-0.59 6.19,0.07 -0.11,13.1 0.02,18.08 -8.72,0.05 -22.6,0.02 -0.2,-16.74 z" id="Wise" fill="#0D0596" style="fill:#0D0596;fill-opacity:1"/>
    <path d="m 569.8,477.6 12.53,-13.76 4.94,-5.55 0.36,1.37 10.51,-6.28 3.07,-3.26 1.75,1.49 1.92,-0.68 3.2,-0.36 2.24,0.34 -0.32,1.09 1.25,1.65 0.03,2.17 0.84,2.2 3.41,5.76 -8.7,12.28 -9.37,11.65 -16.62,0.83 0.72,-1.1 -11.89,-9.71 z" id="Fayette" fill="#0D0596" style="fill:#0D0596;fill-opacity:1"/>
    <path d="m 591.52,219.95 10.75,-0.05 16.05,-0.3 0.14,4.02 5.29,-0.95 0.37,10.19 0.47,16.09 -13.15,0.39 -19.58,0.31 z" id="Collin" fill="#0D0596" style="fill:#0D0596;fill-opacity:1"/>
    <path d="m 582.12,717.11 -1.16,0.04 -0.84,-4.28 -2.18,-5.32 0.88,-0.93 z m -47.21,-13.1 6.14,0.84 26.91,-0.78 2.35,7.08 -0.37,1.31 2.08,-0.01 2.17,4.89 -2.41,0.11 -0.89,1.8 -1.73,1.51 -1.1,2.87 -2.95,-0.76 -1.81,0.82 -0.36,1.9 -21.51,-2.97 -0.16,-6.07 -2.95,-0.03 -6.16,-0.86 1.14,-6.27 0.97,-1.07 z" id="Willacy" fill="#3933E5" style="fill:#3933E5;fill-opacity:1"/>
    <path d="m 618.32,219.6 -0.37,-14.25 -0.15,-9.06 1.1,2.38 1.45,0.17 1.61,-1.61 0.65,-3.95 1.95,-0.19 2.1,1.3 2.99,-1 0.84,-2.04 -0.2,-2.06 0.94,-1.45 2.81,-0.83 3.07,0.7 2.95,-1.15 3.36,-0.89 0.85,-1.7 4.83,3.01 -0.43,1.18 0.84,25.71 0.09,3.71 -25.85,5.09 -5.29,0.95 z" id="Fannin" fill="#0D0596" style="fill:#0D0596;fill-opacity:1"/>
    <path d="m 611.44,249.34 13.15,-0.39 0.36,9.94 0.06,1.95 -13.27,0.51 z" id="Rockwall" fill="#0D0596" style="fill:#0D0596;fill-opacity:1"/>
    <path d="m 403.01,192.61 9.57,-0.03 2.27,1.31 1.92,-0.38 0.68,1.09 2,-0.51 1.46,-0.94 3.64,0.87 2,1.89 3.44,-0.4 2.95,1.82 1.09,2.37 0.31,23.79 -30.91,0.28 z" id="Knox" fill="#0D0596" style="fill:#0D0596;fill-opacity:1"/>
    <path d="m 464.61,165.35 1.9,2.05 2.92,1.27 3.98,0.74 2.31,1.22 4.44,0.17 2.48,-2.27 2.86,0.23 1.35,0.8 1.01,1.79 1.45,1.13 1.94,2.47 1.07,0.67 2.49,-1.44 1.2,-0.06 0.3,17.54 -31.41,0.61 z" id="Wichita" fill="#0D0596" style="fill:#0D0596;fill-opacity:1"/>
    <path d="m 396.87,529.82 26.61,-0.32 16.87,-0.26 0.31,19.31 0.26,12.68 -7.37,-0.08 -21.83,0.03 -2.37,-0.2 -12.6,-0.06 z" id="Zavala" fill="#3933E5" style="fill:#3933E5;fill-opacity:1"/>
    <path d="m 538.82,344.5 4.59,-2.85 5.34,8.62 11.84,18.7 -29.37,18.51 -17.21,-27.64 z" id="Coryell" fill="#0D0596" style="fill:#0D0596;fill-opacity:1"/>
    <path d="m 402.79,141.09 1.53,-0.13 1.52,-1.22 3.45,2.13 2.02,2.66 1.82,0.95 0.47,1.56 1.23,1.58 1.66,1.16 0.67,1.15 2.24,1.3 1.27,1.73 1.91,0.32 0.85,-0.62 2.84,0.53 0.91,-1.18 0.25,-1.81 4.73,0.46 1.47,0.96 0.16,22.07 -3.74,1.66 -2.05,-0.08 -0.59,-1.04 -1.9,-0.27 -0.47,-0.93 -1.77,-0.21 -7.04,0.44 -13.37,-9.27 -0.02,-6.22 z" id="Hardeman" fill="#0D0596" style="fill:#0D0596;fill-opacity:1"/>
    <path d="m 438.89,658.96 5.25,-3.89 2.38,3.25 24.06,0.01 0.46,34.38 -3.54,7.92 -10.04,7.46 -0.58,-3.47 -1.46,-2.54 -0.63,-2.66 0.04,-2.19 -2,-1.48 -0.18,-3.01 -1.28,-1.94 -0.43,-1.96 -1.71,-1.56 -1.38,-0.01 -0.78,-0.99 0.43,-1.93 -0.99,-1.12 -1.9,-0.43 -1.36,-1.07 -0.33,-1.4 1.01,-0.71 -1.7,-1.66 -0.76,-1.4 -1.95,-0.42 -0.42,-2.79 1.12,-1.14 -0.48,-1.91 0.7,-1.51 -0.48,-1.95 0.72,-1.58 -0.46,-2.49 -0.76,-0.85 0.22,-1.89 z" id="Zapata" fill="#0D0596" style="fill:#0D0596;fill-opacity:1"/>
    <path d="m 611.76,280.42 0.38,-0.01 -0.4,-19.06 13.27,-0.51 -0.06,-1.95 13.22,-0.26 0.97,23.53 0.39,10.6 -22.68,0.74 1.01,-2.2 -0.29,-1.63 -2.41,-1.49 -2.08,-3.42 0.25,-2.86 z" id="Kaufman" fill="#0D0596" style="fill:#0D0596;fill-opacity:1"/>
    <path d="m 470.19,454.62 20.49,-0.34 10.97,14.11 -4.37,4.44 -9.77,9.44 -3.35,0.61 -2.32,1.51 -2.52,-0.22 -8.66,-4.23 -0.36,-14.74 z" id="Kendall" fill="#E27F7F" style="fill:#E27F7F;fill-opacity:1"/>
    <path d="m 580.67,249.84 11.19,-0.19 19.58,-0.31 0.3,12.01 0.4,19.06 -0.38,0.01 -30.62,0.74 z" id="Dallas" fill="#3933E5" style="fill:#3933E5;fill-opacity:1"/>
    <path d="m 326.21,356.26 15.43,0.19 19.52,0.35 0.14,19.65 0.02,11.39 -16.7,0.22 -19.09,0.08 z" id="Irion" fill="#0D0596" style="fill:#0D0596;fill-opacity:1"/>
    <path d="m 101.92,412.1 32.21,-18.67 18.8,-10.78 30.87,25.03 8.69,7.38 -22.68,17.32 -6.17,-0.17 -12.23,-3.27 -33.89,-9.21 -19.55,-5.35 z" id="Jeff Davis" fill="#0D0596" style="fill:#0D0596;fill-opacity:1"/>
    <path d="m 440.35,529.24 37.97,-0.36 0.68,31.44 -25.9,0.55 -11.35,0.34 -0.83,0.02 -0.26,-12.68 z" id="Frio" fill="#0D0596" style="fill:#0D0596;fill-opacity:1"/>
    <path d="m 479.43,602.22 29.54,-0.49 6.23,-0.13 1.25,56.5 -18.47,0.14 -0.02,-5.55 -1.92,-0.01 -0.03,-1.09 -2.34,0.07 0.03,1.45 -2.25,0.05 -0.03,-1.4 -7.89,0.19 -3.1,0.24 -0.66,-29.92 z" id="Duval" fill="#0D0596" style="fill:#0D0596;fill-opacity:1"/>
    <path d="m 527.1,304.92 9.69,-6.11 10.07,-0.39 0.23,8.17 -0.96,-0.25 -13.93,8.85 z" id="Somervell" fill="#3933E5" style="fill:#3933E5;fill-opacity:1"/>
    <path d="m 307.65,96.36 14.46,0.22 16.9,0.14 -0.13,11.04 -0.34,19.84 -22.36,-0.13 -9.26,-0.12 z" id="Armstrong" fill="#0D0596" style="fill:#0D0596;fill-opacity:1"/>
    <path d="m 339.25,65.6 12.24,0.06 5.17,-0.07 14.34,0.13 0.07,21.84 -0.06,9.23 -25.28,-0.11 -6.72,0.04 z" id="Gray" fill="#0D0596" style="fill:#0D0596;fill-opacity:1"/>
    <path d="m 372.06,223.76 31.37,0.01 0.12,10.21 0.11,20.86 -9.31,0.03 -22.45,-0.21 0.15,-18.15 z" id="Stonewall" fill="#0D0596" style="fill:#0D0596;fill-opacity:1"/>
    <path d="m 363.72,254.6 8.18,0.06 22.45,0.21 -0.08,31.05 -30.93,-0.2 0.03,-6.44 z" id="Fisher" fill="#0D0596" style="fill:#0D0596;fill-opacity:1"/>
    <path d="m 396.75,491.71 6.07,-0.04 16.27,-0.15 9.21,-0.23 11.87,-0.11 0.13,20.05 0.05,18.01 -16.87,0.26 -26.61,0.32 z" id="Uvalde" fill="#0D0596" style="fill:#0D0596;fill-opacity:1"/>
    <path d="m 466.76,399.08 13.11,-0.1 7.62,-0.22 11.01,-0.15 -0.09,3.62 1.78,0.78 -0.1,1.71 1.7,-0.59 -1.7,4.78 0.05,1.81 2.89,0.23 -2.32,3.21 0.42,1.9 -1.91,0.15 1.28,1.92 0.08,1.33 1.07,1.93 -0.7,0.87 0.94,1.66 1.32,-0.72 1.48,1.07 0.16,5.13 -3.74,-1.07 -11.06,0.34 -22.89,0.42 z" id="Llano" fill="#0D0596" style="fill:#0D0596;fill-opacity:1"/>
    <path d="m 433.79,174.69 -0.16,-22.07 4.02,1.63 1.13,-2.81 -0.45,-2.14 0.81,-1.06 3.11,2.43 0.54,0.96 1.47,-0.48 3.4,3.43 1.64,2.05 -0.18,1.92 1.03,2.07 -0.02,2.64 0.47,2.13 4.16,0.85 2.34,-0.72 2.14,0.92 1.79,-0.38 0.72,-1.03 1.58,0.98 1.28,-0.66 0.29,26.92 -30.99,0.31 z" id="Wilbarger" fill="#0D0596" style="fill:#0D0596;fill-opacity:1"/>
    <path d="m 440.17,491.18 21.39,0.06 5.15,-0.04 0.48,0.72 -0.65,2.03 0.13,1.46 3.6,0.09 7.36,-9.22 0.54,31.23 0.15,11.37 -37.97,0.36 -0.05,-18.01 z" id="Medina" fill="#584CDE" style="fill:#584CDE;fill-opacity:1"/>
    <path d="m 580.84,488.54 16.62,-0.83 1.98,1.12 0.71,2.77 2.46,-0.12 6.72,7.55 8.28,9.14 -5.91,5.28 -11.47,9.9 -5.52,4.89 -2.45,-2.83 -8.68,-10.12 -8.3,-9.3 2.1,-8.79 -0.26,-5.18 z" id="Lavaca" fill="#0D0596" style="fill:#0D0596;fill-opacity:1"/>
    <path d="m 537.99,507.48 12.4,-19.68 2.24,1.3 17.04,-11.37 11.89,9.71 -0.72,1.1 -3.72,3.48 0.26,5.18 -2.1,8.79 -12.8,11.26 -9.91,8.84 -7.37,-7.77 -8.32,-9.12 z" id="Gonzales" fill="#0D0596" style="fill:#0D0596;fill-opacity:1"/>
    <path d="m 551.88,184.8 2,1.68 -0.61,3.55 2.2,1.53 3.17,-0.09 1.92,-3.08 1.46,-0.39 0.49,-1.39 2.14,1.94 1.22,-1.23 0.13,-1.8 2.06,-1.17 1.9,1.64 0.86,3.17 -2.13,1.87 -0.09,1.35 0.92,1.47 1.2,3.12 2.77,1.38 1.7,-0.82 0.63,-2.7 -0.64,-2.33 0.93,-1.04 1.8,-0.39 0.07,-1.57 1.45,-0.53 2.14,-3.23 -0.75,-2.9 2.94,-1.31 0.82,24.38 0.38,13.47 -26.19,-0.25 -6.19,-0.07 z" id="Cooke" fill="#0D0596" style="fill:#0D0596;fill-opacity:1"/>
    <path d="m 515.2,601.6 22.19,-0.38 1.01,1.11 2.49,0.25 1.4,-0.37 1.01,1.55 -0.48,1.69 -8.38,8.03 0.2,7.71 -0.32,10.01 -7.44,0.16 0.65,26.63 -11.08,0.11 z" id="Jim Wells" fill="#0D0596" style="fill:#0D0596;fill-opacity:1"/>
    <path d="m 332.73,254.43 8.07,-0.41 2.9,0.38 20.02,0.2 -0.35,24.68 -0.03,6.44 -7.38,-0.03 -15.1,-0.26 -8.43,-0.04 z" id="Scurry" fill="#0D0596" style="fill:#0D0596;fill-opacity:1"/>
    <path d="m 370.77,2.97 31.44,-0.05 0.1,31.68 -21.23,0.03 -10.03,-0.07 -0.38,-0.01 z" id="Lipscomb" fill="#3933E5" style="fill:#3933E5;fill-opacity:1"/>
    <path d="m 279.34,157.89 5.46,0.09 25.55,0.37 -0.3,34.27 h -30.98 z" id="Hale" fill="#0D0596" style="fill:#0D0596;fill-opacity:1"/>
    <path d="m 428.2,471.39 20.04,0.08 6.29,0.59 4.34,2.03 11.79,5.85 8.66,4.23 -1.69,2.11 -7.36,9.22 -3.6,-0.09 -0.13,-1.46 0.65,-2.03 -0.48,-0.72 -5.15,0.04 -21.39,-0.06 -11.87,0.11 z" id="Bandera" fill="#584CDE" style="fill:#584CDE;fill-opacity:1"/>
    <path d="m 577.07,634.41 1.63,-0.54 1.25,0.43 -3.12,7.27 -2.57,7.58 -1.65,6.57 -1.41,0.03 -0.11,-1.47 0.93,-0.73 -0.7,-1.54 0.23,-2.03 1.54,-3.15 0.31,-2.26 1.36,-3.35 0.16,-1.87 z m -42.75,-3.21 1.36,0.89 1.9,0.09 1.14,2.35 2.25,2.01 32.55,-0.97 -1.18,3.45 -0.34,2.22 -0.97,2.77 -0.05,2.34 -1.86,4.84 -0.83,1.54 -2.3,0.62 -2,1.18 -1.58,1.67 -1.52,-0.22 0.89,-1.9 2.22,-2.58 -1.1,-2.23 -2.22,2.35 -3.12,2.27 -1.45,1.61 -1.78,-0.78 0.07,-1.85 -1.16,0.03 -1.09,-1.48 0.49,-0.86 -1.28,-1.29 -1.86,-0.62 1.15,3.66 2.02,3.14 -4.02,1.49 -0.82,-0.27 -1.27,-0.67 -2.29,0.25 -1.36,0.65 0.02,1.13 -1.61,0.88 -5.87,0.58 -1.36,1.37 -1.9,0.71 -0.09,-3.64 -4.57,0.06 -0.65,-26.63 z" id="Kleberg" fill="#0D0596" style="fill:#0D0596;fill-opacity:1"/>
    <path d="m 441.75,561.21 11.35,-0.34 25.9,-0.55 v 0.01 l 0.37,28.19 0.12,3.41 -0.06,10.29 -10.26,0.56 -26.62,1.77 -0.44,-12.37 -0.24,-15.74 z" id="La Salle" fill="#0D0596" style="fill:#0D0596;fill-opacity:1"/>
    <path d="M 277.65,2.04 277.1,33.79 257.16,33.43 226.29,32.75 227,1 254.14,1.61 Z" id="Dallam" fill="#0D0596" style="fill:#0D0596;fill-opacity:1"/>
    <path d="m 470.58,658.33 9.95,-0.03 -0.1,-6.11 3.1,-0.24 7.89,-0.19 0.03,1.4 2.25,-0.05 -0.03,-1.45 2.34,-0.07 0.03,1.09 1.92,0.01 0.02,5.55 1.12,1.86 0.85,0.25 0.11,6.61 1.63,-0.03 0.15,6.21 3.09,-0.1 0.03,19.33 -14.05,0.18 -19.87,0.16 z" id="Jim Hogg" fill="#0D0596" style="fill:#0D0596;fill-opacity:1"/>
    <path d="m 552.57,526.09 9.91,-8.84 12.8,-11.26 8.3,9.3 8.68,10.12 -3.45,2.93 -16.62,14.69 -0.29,-0.88 -1.9,-1.3 -1.97,-0.2 -2.91,-1.77 -9.63,8.19 -11.57,-13.46 z" id="DeWitt" fill="#0D0596" style="fill:#0D0596;fill-opacity:1"/>
    <path d="m 456.37,286.09 1.09,-0.01 31.27,-0.44 6.09,0.05 0.28,15.19 -4.57,2.74 -6.52,4.15 -15.83,9.2 -11.74,0.02 -0.06,-12.13 z" id="Eastland" fill="#0D0596" style="fill:#0D0596;fill-opacity:1"/>
    <path d="m 276.61,64.8 31.4,0.43 -0.36,31.13 -31.83,-0.45 z" id="Potter" fill="#0D0596" style="fill:#0D0596;fill-opacity:1"/>
    <path d="m 583.76,181.53 1.31,-0.78 1.4,1.8 0.31,2.64 0.81,2 1.02,1.02 1.47,-0.03 0.51,-1.57 2.26,0.35 0.89,0.75 1.15,2.35 2.9,-0.61 1.24,-1.35 0.88,-4.46 0.79,-0.33 1.93,1.51 2.09,-0.15 -0.21,1.46 -1.83,1.68 0.38,0.76 3.03,1.49 2.74,-0.22 0.71,2.33 0.97,1.05 4.6,-0.4 0.59,1.28 2.1,2.19 0.15,9.06 0.37,14.25 -16.05,0.3 -10.75,0.05 -0.43,-0.55 -6.13,-0.02 -0.38,-13.47 z" id="Grayson" fill="#0D0596" style="fill:#0D0596;fill-opacity:1"/>
    <path d="m 624.59,248.95 -0.47,-16.09 -0.37,-10.19 25.85,-5.09 0.36,13.51 0.64,17.02 -4.95,0.18 -1.7,6.72 -0.47,0.95 1.79,1.85 1.43,0.58 -8.53,0.24 -13.22,0.26 z" id="Hunt" fill="#0D0596" style="fill:#0D0596;fill-opacity:1"/>
    <path d="m 308.01,65.23 0.01,-0.27 31.22,0.2 0.01,0.44 -0.24,31.12 -16.9,-0.14 -14.46,-0.22 z" id="Carson" fill="#0D0596" style="fill:#0D0596;fill-opacity:1"/>
    <path d="m 734.75,285.83 3.43,2.13 0.87,-0.61 2.18,0.05 0.52,1.74 1.54,0.87 18.47,-5.53 1.59,27.86 1.73,1.26 -16.68,1.2 -13.27,0.88 -5.34,0.33 -0.47,-6.87 0.26,-2.94 0.68,-3.44 -0.12,-3.07 1.23,-3.37 1.5,-1.7 0.54,-2.43 1.39,-3.69 z" id="Panola" fill="#0D0596" style="fill:#0D0596;fill-opacity:1"/>
    <path d="m 418.7,444.26 27.86,0.09 0.14,10.81 23.49,-0.54 0.11,10.58 0.36,14.74 -11.79,-5.85 -4.34,-2.03 -6.29,-0.59 -20.04,-0.08 -5.47,-0.03 0.01,-11.74 -4.18,0.01 z" id="Kerr" fill="#584CDE" style="fill:#584CDE;fill-opacity:1"/>
    <path d="m 396.35,387.76 10.45,0.02 20.82,-0.1 0.04,10.4 7.27,-0.04 0.18,16.31 -8.67,0.07 -30.1,0.14 z" id="Menard" fill="#0D0596" style="fill:#0D0596;fill-opacity:1"/>
    <path d="m 279.17,223.55 30.94,0.04 -0.37,30.81 -8.02,-0.15 -23.05,-0.17 0.1,-2.87 z" id="Lynn" fill="#0D0596" style="fill:#0D0596;fill-opacity:1"/>
    <path d="m 262.54,346.72 1.86,0.04 31.06,0.47 -0.47,37.34 -0.08,3.22 -32.06,-0.95 0.07,-2.92 -0.3,-5.03 -0.14,-12.52 z" id="Upton" fill="#0D0596" style="fill:#0D0596;fill-opacity:1"/>
    <path d="m 427.62,387.68 0.07,-2.45 -0.17,-19.24 -0.01,-7.03 1.78,-0.13 2.19,0.71 0.44,1.62 1.51,1.57 2.58,0.39 0.98,-1.29 0.33,-1.74 2.15,1.84 2.36,0.76 1.25,-0.38 0.53,1.86 1.62,0.38 0.52,-1.52 3.78,-3.6 2.27,1.08 1.35,0.86 1.12,-0.93 2.8,-0.06 1.56,0.51 0.09,14.95 0.22,21.94 -24.01,0.26 -7.27,0.04 z" id="McCulloch" fill="#0D0596" style="fill:#0D0596;fill-opacity:1"/>
    <path d="m 682.46,218.48 0.11,-0.07 0.38,-0.33 3.49,0.87 1.11,-0.77 4.6,-0.49 1.17,-0.59 0.5,9.39 0.64,15.8 -1.49,1.57 -1.07,3.72 -8.13,0.32 -1.01,-23.97 z" id="Franklin" fill="#0D0596" style="fill:#0D0596;fill-opacity:1"/>
    <path d="m 519.31,250.41 8.05,-0.03 22.6,-0.02 0.09,12.24 0.3,18.92 -3.99,0.09 -18.18,0.31 -8.87,0.06 0.04,-13.52 z" id="Parker" fill="#0D0596" style="fill:#0D0596;fill-opacity:1"/>
    <path d="m 519.31,281.98 8.87,-0.06 18.18,-0.31 0.5,16.81 -10.07,0.39 -9.69,6.11 -3.55,-9.07 -4.27,-10.52 z" id="Hood" fill="#0D0596" style="fill:#0D0596;fill-opacity:1"/>
    <path d="m 522.66,187.33 2.45,0.7 2.41,1.46 1.85,0.57 1.85,-0.63 1.84,-1.63 0.02,-1.01 2.48,-1.81 -0.23,-1.1 1.81,-0.21 1.96,-2.93 1.53,-1.04 2.26,0.67 2.72,2.02 -0.43,2.26 0.98,1.44 1.75,0.08 2.96,-1.62 1.01,0.25 0.7,34.26 -25.68,0.59 -3.62,0.09 -0.05,-2.37 z" id="Montague" fill="#d9d3ee" style="fill:#656565;fill-opacity:1"/>
    <path d="m 457.12,254.68 8.69,-0.1 10.57,-0.14 11.9,0.01 0.45,31.19 -31.27,0.44 z" id="Stephens" fill="#0D0596" style="fill:#0D0596;fill-opacity:1"/>
    <path d="m 558.77,219.13 26.19,0.25 6.13,0.02 0.43,0.55 0.34,29.7 -11.19,0.19 -21.99,0.47 -0.02,-18.08 z" id="Denton" fill="#0D0596" style="fill:#0D0596;fill-opacity:1"/>
    <path d="m 223.91,125.88 30.39,0.7 -0.64,30.86 -5.28,-0.1 -25.3,-0.55 z" id="Parmer" fill="#0D0596" style="fill:#0D0596;fill-opacity:1"/>
    <path d="m 270.08,284.94 0.5,0.01 30.92,0.31 -0.76,31.07 -4.9,-0.02 -26.3,-0.39 z" id="Martin" fill="#0D0596" style="fill:#0D0596;fill-opacity:1"/>
    <path d="m 545.08,461.41 3.59,-3.25 9.4,8.71 11.73,10.73 -0.13,0.13 -17.04,11.37 -2.24,-1.3 -1.9,-1.17 -4.52,-1.61 -2.13,-3.54 -4.65,-3.98 0.25,-2.08 -2.38,-2.05 -1.44,0.1 0.22,-1.83 2.75,-2.41 3.46,-2.15 1.89,-3.09 z" id="Caldwell" fill="#0D0596" style="fill:#0D0596;fill-opacity:1"/>
    <path d="m 508.22,562.33 14.58,-12.65 5.96,6.74 -5.25,2.05 18.36,33.66 -0.55,0.48 -5.33,4.57 0.25,3.29 1.15,0.75 -22.19,0.38 -6.23,0.13 -0.5,-27.72 z" id="Live Oak" fill="#3933E5" style="fill:#3933E5;fill-opacity:1"/>
    <path d="m 248.38,157.34 5.28,0.1 25.68,0.45 -0.27,34.73 -31.42,-0.6 z" id="Lamb" fill="#0D0596" style="fill:#0D0596;fill-opacity:1"/>
    <path d="m 275.82,95.91 31.83,0.45 -0.73,30.99 -21.69,-0.32 -10,-0.11 z" id="Randall" fill="#0D0596" style="fill:#0D0596;fill-opacity:1"/>
    <path d="m 516.87,543.02 7.13,-6.17 21.2,-18.53 7.37,7.77 -8.65,7.52 11.57,13.46 -12.5,10.62 -0.61,-0.54 -2.58,-0.07 -3.44,-1.19 -2,-1.68 -5.6,2.21 -5.96,-6.74 z" id="Karnes" fill="#0D0596" style="fill:#0D0596;fill-opacity:1"/>
    <path d="m 700.95,433.12 9.56,-5.36 9.81,-5.7 -0.43,-0.41 4.44,0.11 2.73,-0.22 9.75,26.36 9.33,-0.55 1,15.83 -3.58,0.16 -29.7,1.9 -1.18,-2.47 0.63,-3.78 -0.95,-1.29 -1.94,-0.05 -4.62,-12.13 z" id="Liberty" fill="#0D0596" style="fill:#0D0596;fill-opacity:1"/>
    <path d="m 465.24,223.29 12.13,-0.03 19.65,-0.35 0.1,6.98 0.02,20.61 0.03,3.95 h -8.89 l -11.9,-0.01 -10.57,0.14 z" id="Young" fill="#0D0596" style="fill:#0D0596;fill-opacity:1"/>
    <path d="m 341.24,158.62 5.63,0.02 25.3,-0.01 -0.08,10.41 -0.06,23.61 -30.99,0.02 z" id="Motley" fill="#0D0596" style="fill:#0D0596;fill-opacity:1"/>
    <path d="m 418.56,459.63 4.18,-0.01 -0.01,11.74 5.47,0.03 0.1,19.9 -9.21,0.23 -16.27,0.15 0.42,-0.62 -1.43,-2.2 0.82,-0.91 -1.78,-1.33 1.19,-2.01 0.25,-1.47 -0.86,-2.48 1.41,-1.1 -1.13,-3.31 0.73,-2.03 -0.26,-0.94 1.32,-1 0.75,-9.15 1.03,0.08 0.32,-4.1 3.06,0.61 z" id="Real" fill="#3933E5" style="fill:#3933E5;fill-opacity:1"/>
    <path d="m 310.35,158.35 5.51,0.07 25.38,0.2 -0.2,34.05 -30.99,-0.05 z" id="Floyd" fill="#0D0596" style="fill:#0D0596;fill-opacity:1"/>
    <path d="m 326.25,354.29 24.46,-0.25 0.3,-10.16 2.16,0.67 15.9,0.23 19.88,0.06 0.08,7.51 0.46,0.41 7.03,0.06 -0.17,34.94 -8.25,-0.02 -26.78,0.1 -0.02,-11.39 -0.14,-19.65 -19.52,-0.35 -15.43,-0.19 z" id="Tom Green" fill="#0D0596" style="fill:#0D0596;fill-opacity:1"/>
  </g>
</svg>