<?xml version="1.0" encoding="UTF-8" standalone="no"?>
<svg
   viewBox="0 0 47.596107 103.65045"
   width="47.596107"
   height="103.65044"
   version="1.1"
   id="svg259"
   sodipodi:docname="1997TX28Runoff.svg"
   inkscape:version="1.1.1 (3bf5ae0d25, 2021-09-20)"
   xmlns:inkscape="http://www.inkscape.org/namespaces/inkscape"
   xmlns:sodipodi="http://sodipodi.sourceforge.net/DTD/sodipodi-0.dtd"
   xmlns="http://www.w3.org/2000/svg"
   xmlns:svg="http://www.w3.org/2000/svg">
  <defs
     id="defs263" />
  <sodipodi:namedview
     id="namedview261"
     pagecolor="#ffffff"
     bordercolor="#666666"
     borderopacity="1.0"
     inkscape:pageshadow="2"
     inkscape:pageopacity="0.0"
     inkscape:pagecheckerboard="0"
     showgrid="false"
     inkscape:zoom="5.6568543"
     inkscape:cx="55.773047"
     inkscape:cy="41.277358"
     inkscape:window-width="1920"
     inkscape:window-height="1001"
     inkscape:window-x="-9"
     inkscape:window-y="-9"
     inkscape:window-maximized="1"
     inkscape:current-layer="layer1" />
  <style
     id="style4">
		tspan { white-space: pre }
		.shp0{ fill: #165016;stroke: #ffffff;stroke-width: 1.034 } 
		.shp1{ fill: #217821;stroke: #ffffff;stroke-width: 1.034 } 
		.shp2{ fill: #2CA02C;stroke: #ffffff;stroke-width: 1.034 } 
		.shp3{ fill: #37C837;stroke: #ffffff;stroke-width: 1.034 } 
		.shp4{ fill: #5FD35F;stroke: #ffffff;stroke-width: 1.034 } 
		.shp5{ fill: #87DE87;stroke: #ffffff;stroke-width: 1.034 } 
		.shp6{ fill: #AAE5AA;stroke: #ffffff;stroke-width: 1.034 } 
		.shp7{ fill: #002B84;stroke: #ffffff;stroke-width: 1.034 } 
		.shp8{ fill: #0645B4;stroke: #ffffff;stroke-width: 1.034 } 
		.shp9{ fill: #1666CB;stroke: #ffffff;stroke-width: 1.034 } 
		.shp10{ fill: #4389E3;stroke: #ffffff;stroke-width: 1.034 } 
		.shp11{ fill: #86B6F2;stroke: #ffffff;stroke-width: 1.034 } 
		.shp12{ fill: #B9D7FF;stroke: #ffffff;stroke-width: 1.034 } 
		.shp13{ fill: #D3E7FF;stroke: #ffffff;stroke-width: 1.034 } 
		.shp14{ fill: #A08000;stroke: #ffffff;stroke-width: 1.034 } 
		.shp15{ fill: #BE9600;stroke: #ffffff;stroke-width: 1.034 } 
		.shp16{ fill: #DAAE00;stroke: #ffffff;stroke-width: 1.034 } 
		.shp17{ fill: #F4C200;stroke: #ffffff;stroke-width: 1.034 } 
		.shp18{ fill: #FFDC43;stroke: #ffffff;stroke-width: 1.034 } 
		.shp19{ fill: #FFE680;stroke: #ffffff;stroke-width: 1.034 } 
		.shp20{ fill: #FFEEAA;stroke: #ffffff;stroke-width: 1.034 } 
</style>
  <g
     id="layer1"
     transform="translate(-181.98944,-214.10107)">
    <path
       id="TX_Zapata"
       class="shp11"
       d="m 182.21,286.94 2.29,-1.54 0.94,1.4 10.15,0.45 -0.43,14.34 -6.08,6.2 -0.39,-1.6 -0.49,-1.94 v -0.03 l -0.8,-2.97 -0.65,-1.64 -1.37,-1.94 -1.51,-0.87 -1.73,-2.69 -0.1,-1.19 0.03,-0.11 0.13,-0.11 0.47,-0.69 0.19,-2.42 -0.34,-2.2 -0.27,-0.43 -0.02,-0.01 -0.02,-0.01"
       style="fill:#86b6f2;fill-opacity:1;stroke-width:0.1;stroke-miterlimit:4;stroke-dasharray:none"
       inkscape:export-filename="C:\Users\james\Documents\Election Map Stuff\1948 Primary Runoff.png"
       inkscape:export-xdpi="96"
       inkscape:export-ydpi="96" />
    <path
       id="TX_Jim_Hogg"
       class="shp11"
       d="m 199.86,284.87 6.59,0.03 0.79,0.49 -0.09,2.32 0.79,0.91 1.89,5.38 -0.34,8.06 -14.33,-0.47 0.43,-14.34 4.27,-2.38"
       style="fill:#86b6f2;fill-opacity:1;stroke-width:0.1;stroke-miterlimit:4;stroke-dasharray:none"
       inkscape:export-filename="C:\Users\james\Documents\Election Map Stuff\1948 Primary Runoff.png"
       inkscape:export-xdpi="96"
       inkscape:export-ydpi="96" />
    <path
       id="TX_Starr"
       class="shp8"
       d="m 195.16,301.59 14.33,0.47 2.74,0.09 -2.16,4.61 -2.54,4.9 -2.88,5.86 -1.27,0.18 -1.95,-0.86 -9.14,-4.11 -1.54,-1 -1.57,-3.58 -0.06,-0.21 -0.04,-0.15 6.08,-6.2"
       style="fill:#0645b4;fill-opacity:1;stroke-width:0.1;stroke-miterlimit:4;stroke-dasharray:none"
       inkscape:export-filename="C:\Users\james\Documents\Election Map Stuff\1948 Primary Runoff.png"
       inkscape:export-xdpi="96"
       inkscape:export-ydpi="96" />
    <path
       id="TX_Jim_Wells"
       class="shp8"
       d="m 215.43,264.35 5.70304,0.25119 0.17084,0.22686 -0.26451,0.56248 -0.0902,3.37967 0.63571,0.23095 0.0988,-0.59995 1.30592,0.35754 -1.63844,2.56733 -0.023,0.55816 -0.44085,0.14272 -0.86299,0.8634 -0.002,1.69618 0.64525,0.76304 0.68319,1.35157 -0.006,0.2361 -1.52493,0.0728 -0.2,11.12 -4.67,-0.15 0.48,-23.63"
       style="fill:#0645b4;fill-opacity:1;stroke-width:0.1;stroke-miterlimit:4;stroke-dasharray:none"
       inkscape:export-filename="C:\Users\james\Documents\Election Map Stuff\1948 Primary Runoff.png"
       inkscape:export-xdpi="96"
       inkscape:export-ydpi="96"
       sodipodi:nodetypes="cccccccccccccccccccc" />
    <path
       id="TX_McMullen"
       class="shp11"
       d="m 200.91,246.69 12.3,0.16 -0.41,17.44 -12.46,-0.32 z"
       style="fill:#86b6f2;fill-opacity:1;stroke-width:0.1;stroke-miterlimit:4;stroke-dasharray:none"
       inkscape:export-filename="C:\Users\james\Documents\Election Map Stuff\1948 Primary Runoff.png"
       inkscape:export-xdpi="96"
       inkscape:export-ydpi="96" />
    <path
       id="TX_Duval"
       class="shp7"
       d="m 200.34,263.97 12.46,0.32 2.63,0.06 -0.48,23.63 -7.8,-0.27 0.09,-2.32 -0.79,-0.49 -6.59,-0.03 0.48,-20.9"
       style="fill:#002b84;fill-opacity:1;stroke-width:0.1;stroke-miterlimit:4;stroke-dasharray:none"
       inkscape:export-filename="C:\Users\james\Documents\Election Map Stuff\1948 Primary Runoff.png"
       inkscape:export-xdpi="96"
       inkscape:export-ydpi="96" />
    <path
       id="TX_La_Salle"
       class="shp8"
       d="m 200.93,246.41 -0.02,0.28 -0.57,17.28 -15.58,0.29 0.05,-5.18 0.42,-12.98 15.7,0.31"
       style="fill:#0645b4;fill-opacity:1;stroke-width:0.1;stroke-miterlimit:4;stroke-dasharray:none"
       inkscape:export-filename="C:\Users\james\Documents\Election Map Stuff\1948 Primary Runoff.png"
       inkscape:export-xdpi="96"
       inkscape:export-ydpi="96" />
    <path
       id="TX_Frio"
       class="shp10"
       d="m 201.22,233.21 -0.29,13.2 -15.7,-0.31 -0.34,-0.01 0.34,-13.43 15.99,0.55"
       style="fill:#4389e3;fill-opacity:1;stroke-width:0.1;stroke-miterlimit:4;stroke-dasharray:none"
       inkscape:export-filename="C:\Users\james\Documents\Election Map Stuff\1948 Primary Runoff.png"
       inkscape:export-xdpi="96"
       inkscape:export-ydpi="96" />
    <path
       id="TX_Wilson"
       class="shp4"
       d="m 226.68,225.28 2.84,4.68 -12.35,9.87 -5.51,-7.05 7.41,-9.61 0.15,1.54 0.1,0.37 0.22,0.4 0.75,-0.41 6.39,0.21"
       style="fill:#5fd35f;fill-opacity:1;stroke-width:0.1;stroke-miterlimit:4;stroke-dasharray:none"
       inkscape:export-filename="C:\Users\james\Documents\Election Map Stuff\1948 Primary Runoff.png"
       inkscape:export-xdpi="96"
       inkscape:export-ydpi="96" />
    <path
       id="TX_Atascosa"
       class="shp11"
       d="m 201.36,228.44 10.3,4.34 5.51,7.05 2.38,2.9 -6.36,5.05 0.02,-0.93 -12.3,-0.16 0.02,-0.28 0.29,-13.2 0.14,-4.77"
       style="fill:#86b6f2;fill-opacity:1;stroke-width:0.1;stroke-miterlimit:4;stroke-dasharray:none"
       inkscape:export-filename="C:\Users\james\Documents\Election Map Stuff\1948 Primary Runoff.png"
       inkscape:export-xdpi="96"
       inkscape:export-ydpi="96" />
    <path
       id="TX_Bexar"
       class="shp10"
       d="m 214.98275,219.60556 -0.0488,-0.32546 0.29221,0.21857 0.11351,0.16678 0.35463,0.14575 0.16092,0.17852 L 214.8,219.35 l 1.24737,0.73505 1.27,0.4 L 219.29,222 l 0.04,0.89 -0.26,0.28 -7.41,9.61 -10.3,-4.34 4.2767,1.7709 0.32053,-0.16486 -0.0131,-0.79541 -0.44728,-0.0787 0.0134,-0.3085 0.45317,-0.11453 0.15372,-0.0524 -0.0118,-0.0888 -0.13238,-0.0646 0.007,-0.57365 0.30031,-0.42936 0.17634,0.16764 -0.0224,0.30765 0.19611,-0.0262 0.27737,0.22772 0.11709,0.13501 0.61281,-0.75914 -0.0864,-0.22395 0.1059,-0.0422 -0.0637,-0.47329 -0.16111,-0.0946 v -0.0589 l 0.14745,0.0498 0.0416,-0.2631 -0.56031,0.11225 -0.40409,-0.0173 -0.27875,-0.15736 1.54182,-1.65453 0.20565,-0.19714 0.4483,0.0781 0.0483,-0.41014 0.20251,-0.16946 0.34823,-0.0595 0.27289,-0.5193 0.20411,0.16764 0.048,0.29583 0.10289,-0.32032 0.2186,0.0978 0.0269,0.20596 0.14998,0.006 -0.068,-0.42853 0.28805,-0.0313 0.1201,-0.041 -0.0445,-0.16252 -0.49501,0.0513 0.0358,-0.13111 0.25763,-0.0492 0.5732,-0.0472 0.45714,-0.49607 0.12444,-0.0983 0.48056,0.004 0.85143,-0.59684 -0.0522,-0.14956 -0.58325,-0.0562 0.0747,-0.39408 -0.0765,0.0729 -0.20846,0.41877 -0.17182,-0.19883 0.1438,-0.23962 0.13488,-0.25977 0.13616,-0.0973 0.10758,-0.0991 0.8111,-6.4e-4 0.10896,-0.18619 -0.0262,-0.11885 -0.13347,-0.0352 -0.0749,-0.28281 0.15785,-0.24442 0.20875,0.0384 0.0934,-0.0697 -0.12736,-0.1232 0.0356,-0.12881 -0.35497,-0.87038 0.20109,-0.13849 0.5097,0.8007 0.20711,0.079 -0.0513,-0.22251 0.13981,-0.14258 -0.21112,-0.36241 0.21502,-0.10996 0.22413,0.0211 0.15622,0.33201 -0.21429,0.0954 0.33604,0.6328 0.19982,-0.10919 0.25399,-0.004"
       style="fill:#4389e3;fill-opacity:1;stroke-width:0.1;stroke-miterlimit:4;stroke-dasharray:none"
       inkscape:export-filename="C:\Users\james\Documents\Election Map Stuff\1948 Primary Runoff.png"
       inkscape:export-xdpi="96"
       inkscape:export-ydpi="96"
       sodipodi:nodetypes="cccccccccccccccccccccccccccccccccccccccccccccccccccccccccccccccccccccccccccccccccccccccccccccccccccc" />
    <path
       id="TX_Guadalupe"
       class="shp11"
       d="m 221.17582,215.89701 0.0713,0.10622 0.10205,0.0921 -0.032,0.14589 -0.13724,0.0416 -0.0371,0.18929 0.0576,0.16444 0.0563,0.0908 0.0883,0.0755 0.16219,0.0768 0.0275,0.28025 0.31448,0.0486 -0.0326,0.26355 -0.10846,0.0992 0.0131,0.16252 -0.33364,0.0633 0.25337,0.42329 -0.0781,0.0996 0.18728,0.18473 0.29788,0.0813 -0.0112,-0.0889 0.35166,-0.14735 -0.009,-0.19167 0.32849,0.0416 0.0288,0.10366 0.30006,0.0237 0.006,-0.1469 0.22535,-0.005 0.0282,-0.61687 0.62967,0.023 -0.002,0.48583 0.0518,0.41452 0.045,0.003 -0.006,0.13219 0.2105,-0.006 -0.003,0.13235 0.24314,-0.0499 0.068,0.16479 -0.10973,0.11389 -0.41971,0.0742 -0.003,0.13235 0.49697,-0.008 0.0782,-0.0703 0.0105,0.13296 -0.0606,0.0109 -0.12477,0.0889 -0.0221,0.36896 0.0682,0.19432 -0.36334,0.79366 -0.34836,0.10269 -0.15113,0.0237 -0.0667,-0.19413 -0.054,0.20369 -0.19436,0.34475 -0.15874,0.22858 -0.13411,0.31805 -0.28684,0.0333 -0.39648,0.14473 -0.095,0.11363 -0.2703,0.003 -0.0818,-0.25238 -0.20756,0.30012 -0.31087,0.23699 -0.31918,0.0799 -0.0102,1.01498 -0.25539,0.004 -0.0894,-0.0166 0.1536,-0.0816 -0.11159,-0.19608 -0.0919,0.0408 -0.132,-0.0766 -0.12857,-0.16671 -0.17183,-0.19614 0.0383,-0.21908 -0.55106,0.27148 -0.53042,-0.84072 0.0157,-0.0582 -0.0595,-0.0742 0.0614,-0.087 0.0739,0.0307 -0.015,0.0442 0.0445,0.0141 0.0909,6.4e-4 -0.0614,0.0723 0.0883,0.0755 0.12405,-0.11394 h 0.0752 l -0.003,0.044 0.0902,-0.0147 0.0307,-0.0288 -0.10206,-0.13436 0.0457,-0.0141 0.0438,0.0307 0.0601,0.0147 0.001,-0.0441 0.0921,-0.0416 -0.015,-0.10301 0.0621,-0.0864 -0.0562,-0.19314 0.0163,-0.13181 0.0633,-0.0857 0.0477,-0.10174 0.22615,-0.007 -0.22417,-0.48068 0.7139,-0.19316 0.80665,-0.25949 0.5041,-0.18517 0.22797,-0.0646 0.11495,0.15085 0.15164,0.003 0.1654,0.003 0.0157,-0.19067 0.015,-0.14716 -0.0254,-0.11565 -0.20923,-0.0307 -0.151,-6.4e-4 -0.1852,0.12585 -0.11057,-0.22554 -0.0955,-0.23959 -0.025,-0.11882 -0.12156,0.0269 -0.10398,-0.11901 -0.0425,-0.11965 -0.12013,-0.032 -0.22535,0.003 -0.16604,0.0224 -0.18059,0.004 -0.21185,0.0352 -0.2123,0.0646 -0.21256,0.0518 -0.244,0.0793 -0.21547,0.11069 -0.15205,0.0397 -0.0902,0.0422 0.0451,0.0589 -0.0777,0.11645 -6.4e-4,0.10365 0.14972,0.0301 0.015,0.0589 -0.0608,0.0288 v 0.0736 l -0.0326,0.0877 -0.14876,-0.0345 -0.14662,0.28815 -0.30111,0.0173 -0.0112,-0.14704 -0.25213,-0.43765 0.16924,-0.0959 -0.0294,-0.0742 -0.22692,0.0345 -0.45278,0.055 -0.14032,-0.24148 0.39903,-0.2035 -0.35044,-0.69173 0.13879,-0.0971 -0.24692,-0.54037 -0.18312,0.0663 -0.20776,-0.42031 -0.22919,0.0932 1.15754,-0.72139 0.36653,-0.14678 0.0823,0.18021 0.70395,-0.30837 0.22999,-0.108 0.32113,-0.13488 -0.1622,-0.0774 -0.0438,-0.11901 0.13695,-0.0832 0.0243,0.16303 0.23962,0.0198 0.18374,-0.0812 -0.0357,0.24864 -0.0157,0.0877 0.072,0.0909 0.13661,-0.0429 0.15164,-0.0576 0.0189,-0.20529"
       style="fill:#86b6f2;fill-opacity:1;stroke-width:0.1;stroke-miterlimit:4;stroke-dasharray:none"
       inkscape:export-filename="C:\Users\james\Documents\Election Map Stuff\1948 Primary Runoff.png"
       inkscape:export-xdpi="96"
       inkscape:export-ydpi="96"
       sodipodi:nodetypes="ccccccccccccccccccccccccccccccccccccccccccccccccccccccccccccccccccccccccccccccccccccccccccccccccccccccccccccccccccccccccccccccccccccccccccccccccccccccccccccccccccccccccccccccccc" />
    <path
       id="TX_Comal"
       class="shp10"
       d="m 217.91987,216.09229 0.35552,-0.23501 0.33848,-0.19205 0.23229,-0.16822 0.23083,-0.12403 0.25913,-0.092 0.0281,0.0454 -0.0608,0.0134 0.0282,0.0453 0.0757,0.004 0.0144,0.0595 0.10884,-0.0837 -0.0288,-0.0601 0.0915,-0.0576 -0.13389,-0.0774 h 0.1654 l -0.01,-0.25066 0.14301,-0.17084 0.10077,0.10749 0.15293,-0.055 0.20602,0.10813 -0.002,0.13309 -0.15292,0.11517 -0.0333,0.14588 0.11837,0.0467 0.11376,-0.21579 0.0936,-0.0843 -0.0118,-0.11949 0.20443,-0.21371 0.17279,-0.5223 0.2591,0.26137 -0.40259,0.72056 0.0274,0.0601 -0.14301,0.17138 -0.32152,0.11005 -0.42261,0.0486 -0.088,-0.0771 -0.10973,0.0985 0.0374,0.17851 -0.21316,0.0672 -0.2744,0.48944 -0.15615,-0.21287 -0.009,-0.16169 -0.12029,-0.004 -0.32852,0.30965 0.0243,0.1335 -1.2068,0.52858 -0.0269,-0.0592 0.032,-0.0428 0.326,-0.25076 -0.12109,0.0243 v -0.0442 l -0.0406,-0.0895 -0.003,0.0588 0.003,-0.044 v 0 l 8.4e-4,-0.0583 0.10615,-0.025 -0.0282,-0.0748"
       style="fill:#4389e3;fill-opacity:1;stroke-width:0.1;stroke-miterlimit:4;stroke-dasharray:none"
       inkscape:export-filename="C:\Users\james\Documents\Election Map Stuff\1948 Primary Runoff.png"
       inkscape:export-xdpi="96"
       inkscape:export-ydpi="96"
       sodipodi:nodetypes="ccccccccccccccccccccccccccccccccccccccccccccccccccccccccccc" />
  </g>
</svg>
