<?xml version="1.0" encoding="UTF-8" standalone="no"?>
<svg
   viewBox="0 0 64.117988 37.536488"
   width="64.117989"
   height="37.536488"
   version="1.1"
   id="svg259"
   sodipodi:docname="2006TX22.svg"
   inkscape:version="1.1.1 (3bf5ae0d25, 2021-09-20)"
   xmlns:inkscape="http://www.inkscape.org/namespaces/inkscape"
   xmlns:sodipodi="http://sodipodi.sourceforge.net/DTD/sodipodi-0.dtd"
   xmlns="http://www.w3.org/2000/svg"
   xmlns:svg="http://www.w3.org/2000/svg">
  <defs
     id="defs263" />
  <sodipodi:namedview
     id="namedview261"
     pagecolor="#ffffff"
     bordercolor="#666666"
     borderopacity="1.0"
     inkscape:pageshadow="2"
     inkscape:pageopacity="0.0"
     inkscape:pagecheckerboard="0"
     showgrid="false"
     inkscape:zoom="4.8333334"
     inkscape:cx="37.965517"
     inkscape:cy="-9.413793"
     inkscape:window-width="958"
     inkscape:window-height="991"
     inkscape:window-x="952"
     inkscape:window-y="0"
     inkscape:window-maximized="0"
     inkscape:current-layer="layer1" />
  <style
     id="style4">
		tspan { white-space: pre }
		.shp0{ fill: #800000;stroke: #ffffff;stroke-width: 1.034 } 
		.shp1{ fill: #AA0000;stroke: #ffffff;stroke-width: 1.034 } 
		.shp2{ fill: #D40000;stroke: #ffffff;stroke-width: 1.034 } 
		.shp3{ fill: #CC2F4A;stroke: #ffffff;stroke-width: 1.034 } 
		.shp4{ fill: #E27F90;stroke: #ffffff;stroke-width: 1.034 } 
		.shp5{ fill: #F2B3BE;stroke: #ffffff;stroke-width: 1.034 } 
		.shp6{ fill: #FFCCD0;stroke: #ffffff;stroke-width: 1.034 } 
		.shp7{ fill: #002B84;stroke: #ffffff;stroke-width: 1.034 } 
		.shp8{ fill: #0645B4;stroke: #ffffff;stroke-width: 1.034 } 
		.shp9{ fill: #1666CB;stroke: #ffffff;stroke-width: 1.034 } 
		.shp10{ fill: #4389E3;stroke: #ffffff;stroke-width: 1.034 } 
		.shp11{ fill: #86B6F2;stroke: #ffffff;stroke-width: 1.034 } 
		.shp12{ fill: #B9D7FF;stroke: #ffffff;stroke-width: 1.034 } 
		.shp13{ fill: #D3E7FF;stroke: #ffffff;stroke-width: 1.034 } 
</style>
  <g
     id="layer1"
     transform="translate(-255.75057,-203.07713)">
    <path
       id="TX_Fort_Bend"
       class="shp11"
       d="m 258.95344,207.76822 v 0 l 9.516,-0.83326 0.39308,2.24826 7.1702,0.1223 5.07272,5.5088 4.56058,-0.26701 -0.0631,6.47477 -0.0486,2.85142 -3.60716,-0.0222 -2.01615,1.56756 -4.42344,9.2505 -3.68627,-0.0629 -1.98104,-1.10135 -4.8716,1.41591 -3.11806,2.76669 -5.97394,-4.34443 0.0366,-2.14377 1.97733,-0.71577 0.0842,-4.93855 -1.86142,-6.07978 2.96625,-1.73294 -2.90451,-1.61563 1.84595,-3.11686 0.93241,-5.23176"
       style="fill:#86b6f2;fill-opacity:1;stroke-width:0.25;stroke-miterlimit:4;stroke-dasharray:none"
       inkscape:export-filename="C:\Users\james\Documents\Election Map Stuff\1948 Primary Runoff.png"
       inkscape:export-xdpi="96"
       inkscape:export-ydpi="96"
       sodipodi:nodetypes="ccccccccccccccccccccccccc" />
    <path
       id="TX_Brazoria"
       class="shp12"
       d="m 285.66602,214.54731 6.94938,-0.42842 3.67688,1.70714 4.67374,-1.03026 -0.65033,2.74597 -2.47158,3.24616 v 0 0 l -2.07051,-0.0596 -3.24476,-1.94298 v 0 0 0 l -4.7124,-0.1197 -2.21351,2.35649 v 0 0 0 0 0 0 0 0 0 0 0 0 l 0.0631,-6.47477 v 0"
       style="fill:#b9d7ff;fill-opacity:1;stroke-width:0.25;stroke-miterlimit:4;stroke-dasharray:none"
       inkscape:export-filename="C:\Users\james\Documents\Election Map Stuff\1948 Primary Runoff.png"
       inkscape:export-xdpi="96"
       inkscape:export-ydpi="96"
       sodipodi:nodetypes="ccccccccccccccccccccccccccccc" />
    <path
       id="TX_Galveston"
       class="shp10"
       d="m 300.31569,217.54174 v 0 l 13.16279,8.25616 4.96176,8.62721 v 0 l -8.56911,6.00978 v 0 0 0 0 l -12.02702,-19.64699 2.47158,-3.24616 v 0 0 0"
       style="fill:#4389e3;fill-opacity:1;stroke-width:0.25;stroke-miterlimit:4;stroke-dasharray:none"
       inkscape:export-filename="C:\Users\james\Documents\Election Map Stuff\1948 Primary Runoff.png"
       inkscape:export-xdpi="96"
       inkscape:export-ydpi="96"
       sodipodi:nodetypes="ccccccccccccccc" />
    <path
       id="TX_Harris"
       class="shp12"
       d="m 293.83954,209.75378 1.07447,-1.69234 1.8764,1.60736 10.29046,-4.80844 1.98356,1.56406 3.02481,4.1241 0.67034,-4.44624 1.96942,-2.89901 3.17982,0.0543 1.80529,1.16544 -0.42759,1.06376 -2.51601,-0.86296 -3.35103,3.67762 1.83462,4.05636 -2.07936,2.83299 -2.95666,-0.0505 -3.36787,3.91907 -2.08008,0.0956 -3.15756,-4.4109 -5.32029,1.08198 -3.67688,-1.70714 1.74145,-2.21185 v 0 0 0 0 l -0.51731,-2.15323 v 0"
       style="fill:#b9d7ff;fill-opacity:1;stroke-width:0.25;stroke-miterlimit:4;stroke-dasharray:none"
       inkscape:export-filename="C:\Users\james\Documents\Election Map Stuff\1948 Primary Runoff.png"
       inkscape:export-xdpi="96"
       inkscape:export-ydpi="96"
       sodipodi:nodetypes="cccccccccccccccccccccccccccc" />
  </g>
</svg>
